<svg id="Camada_1" data-name="Camada 1" xmlns="http://www.w3.org/2000/svg" viewBox="0 0 200 200"><title>Animal - Tamanho M</title><path d="M162.5,200H37.5A37.54,37.54,0,0,1,0,162.5V37.5A37.54,37.54,0,0,1,37.5,0h125A37.54,37.54,0,0,1,200,37.5v125A37.54,37.54,0,0,1,162.5,200ZM37.5,7.69A29.84,29.84,0,0,0,7.69,37.5v125A29.84,29.84,0,0,0,37.5,192.31h125a29.84,29.84,0,0,0,29.81-29.81V37.5A29.84,29.84,0,0,0,162.5,7.69Z"/><path d="M39.6,131.91V67.17c-3.05,3-5.6,5.55-8.18,8.06-3.81,3.7-8,4.09-11.12,1s-2.77-7.31,1-11.09q9.86-9.93,19.77-19.8c3.84-3.82,7.79-3.83,11.65,0q9.93,9.87,19.78,19.79c3.75,3.79,4.08,8,1,11.16s-7.4,2.54-11.12-1.11C59.86,72.8,57.4,70.39,54.92,68c-.05-.06-.23,0-.63.07V133c3.29-3.37,5.88-6.13,8.59-8.77,3.29-3.21,7.73-3.4,10.57-.57s2.85,7.25-.44,10.6q-10.33,10.53-20.85,20.87c-3.22,3.17-7.35,3.18-10.56,0Q31,144.64,20.5,134c-3.1-3.17-3.06-7.41-.2-10.26s7.06-2.83,10.26.26c2.83,2.73,5.42,5.72,8.11,8.59Z"/><path d="M181.84,57.86v84.28H164.93V87.32l-22.58,54.82h-12.8l-22.7-54.82v54.82H90V57.86h19.19L136,120.53l26.81-62.67Z"/></svg>