<svg id="Camada_1" data-name="Camada 1" xmlns="http://www.w3.org/2000/svg" viewBox="0 0 200 200"><title>Animal - Tamanho G</title><path d="M162.5,200H37.5A37.54,37.54,0,0,1,0,162.5V37.5A37.54,37.54,0,0,1,37.5,0h125A37.54,37.54,0,0,1,200,37.5v125A37.54,37.54,0,0,1,162.5,200ZM37.5,7.69A29.84,29.84,0,0,0,7.69,37.5v125A29.84,29.84,0,0,0,37.5,192.31h125a29.84,29.84,0,0,0,29.81-29.81V37.5A29.84,29.84,0,0,0,162.5,7.69Z"/><path d="M47.8,131.91V67.17c-3.06,3-5.61,5.55-8.19,8.06-3.81,3.7-8,4.09-11.12,1s-2.76-7.31,1-11.09q9.85-9.93,19.77-19.8c3.85-3.82,7.79-3.83,11.65,0q9.93,9.87,19.78,19.79c3.76,3.79,4.08,8,1,11.16s-7.4,2.54-11.12-1.11Q66.83,71.6,63.12,68c-.06-.06-.23,0-.63.07V133c3.29-3.37,5.88-6.13,8.58-8.77,3.29-3.21,7.73-3.4,10.57-.57s2.86,7.25-.43,10.6q-10.33,10.53-20.86,20.87c-3.21,3.17-7.35,3.18-10.56,0Q39.16,144.64,28.69,134c-3.1-3.17-3.06-7.41-.2-10.26s7.06-2.83,10.27.26c2.83,2.73,5.41,5.72,8.1,8.59Z"/><path d="M152.15,83.4a19.79,19.79,0,0,0-8-8.09,24.28,24.28,0,0,0-11.83-2.78,25.93,25.93,0,0,0-13.29,3.38,23.35,23.35,0,0,0-9,9.66,30.94,30.94,0,0,0-3.26,14.49,31,31,0,0,0,3.32,14.73,23.41,23.41,0,0,0,9.24,9.66,27.17,27.17,0,0,0,13.76,3.38q9.66,0,15.82-5.13T157,108.39H128V95.47h45.64V110.2a39.63,39.63,0,0,1-7.24,16.3,41,41,0,0,1-14.31,12,42.07,42.07,0,0,1-19.62,4.53,44.37,44.37,0,0,1-22-5.5A40,40,0,0,1,95,122.28a43.86,43.86,0,0,1-5.61-22.22A44.19,44.19,0,0,1,95,77.78a39.89,39.89,0,0,1,15.46-15.33A44.13,44.13,0,0,1,132.35,57q14.24,0,24.75,6.95a35.5,35.5,0,0,1,14.49,19.5Z"/></svg>