<svg id="Camada_1" data-name="Camada 1" xmlns="http://www.w3.org/2000/svg" viewBox="0 0 200 200"><title>Dados - Edição</title><path d="M0,200c0-13.7,0-27,.06-40.23a4.16,4.16,0,0,1,1.22-2.65Q61.51,96.78,121.8,36.55c.35-.36.76-.67,1.26-1.11L164.59,77c-.72.75-1.35,1.45-2,2.11Q103,138.63,43.52,198.17A5.48,5.48,0,0,1,39.23,200c-12.14-.08-24.29,0-36.43,0Z"/><path d="M176.52,65.33,135,23.78c0-.08,0-.3.1-.39,7-7,13.91-14,21.08-20.83a10.31,10.31,0,0,1,14,.33q13.65,13.4,27,27a10.36,10.36,0,0,1,.51,13.76c-3.44,4-7.32,7.62-11,11.39C183.28,58.48,179.93,61.87,176.52,65.33Z"/></svg>