<svg id="Camada_1" data-name="Camada 1" xmlns="http://www.w3.org/2000/svg" viewBox="0 0 200 200"><title>Dados - Especie</title><path d="M147.27,200c-6.86-2.42-14-4.34-20.54-7.38-15.59-7.18-31.09-7.65-46.39.07-9.55,4.81-19.09,7-29.71,4.68C36.22,194.19,28.82,182,35.34,168.84,45.74,147.78,58.57,128,76.12,112.1c15.85-14.35,44.12-13,58.07,3.27a414.33,414.33,0,0,1,34.39,47C181.18,182.22,171.36,198.44,147.27,200Z"/><path d="M160.42,45.77C160,55.9,157.47,68.35,147.62,78c-9,8.82-20.35,8.82-29.47.21C100.73,61.8,100.38,23.67,117.5,7c9.33-9.11,20.55-9.19,30.12-.23C155.81,14.38,160.44,27.42,160.42,45.77Z"/><path d="M95.17,41.44c-.87,12.86-3.11,23.8-10.43,33.12-9.56,12.17-24.32,12.73-34.58,1.25-14.89-16.67-14.55-51.74.66-68,9.74-10.44,22.5-10.37,32.34.09C92.46,17.76,94,30.25,95.17,41.44Z"/><path d="M149.49,101.94c.67-13.59,7.62-26.6,21.43-35.43s26.62-2.58,28.8,13.4-8.75,37.14-23,44.58C161.75,132.35,149.56,123.49,149.49,101.94Z"/><path d="M0,86.25c.11-10.34,1.89-18,10-22s15.55-1.09,21.9,4.16C45.57,79.69,52.49,94.05,49.59,112c-2.07,12.86-12.81,18.66-24.6,12.89C8.26,116.71,1.36,102,0,86.25Z"/></svg>