<svg id="Camada_1" data-name="Camada 1" xmlns="http://www.w3.org/2000/svg" viewBox="0 0 200 200"><title>Dados - Idade</title><path d="M159.09,50a9.12,9.12,0,0,0,9.09-9.09V9.09a9.09,9.09,0,1,0-18.18,0V40.91A9.12,9.12,0,0,0,159.09,50Z"/><path d="M45.45,50h0a9.12,9.12,0,0,0,9.1-9.09V9.09a9.1,9.1,0,0,0-18.19,0h0V40.91A9.12,9.12,0,0,0,45.45,50Z"/><path d="M190.91,27.27A18.23,18.23,0,0,0,172.73,9.09h0V40.91a13.64,13.64,0,1,1-27.28,0V9.09H59.09V40.91a13.64,13.64,0,1,1-27.27,0V9.09H27.27A18.23,18.23,0,0,0,9.09,27.27V59.09H190.91Z"/><path d="M9.09,65.26V181.82A18.23,18.23,0,0,0,27.27,200H172.73a18.23,18.23,0,0,0,18.18-18.18v-9.09h0V65.26ZM119.68,97.75l-.08.42q-1.36,17.35-2.63,40.33t-1.1,39.74c-.06.84-.83,1.56-2.32,2.15a16.89,16.89,0,0,1-5.38,1.06,14.2,14.2,0,0,1-5.63-.76,4.64,4.64,0,0,1-3.17-3.47q-1.28-8.64-1.27-27.85t1.18-37.91a4.45,4.45,0,0,1,.09-.93c0-.45,0-.69,0-.72a1.9,1.9,0,0,0-.81.29l-.51.34c-1,.57-2.06,1.1-3.13,1.61-2.2,1.24-4.43,2.46-6.68,3.64-.57.23-1.42-.14-2.54-1.1a17.39,17.39,0,0,1-3.3-4,22,22,0,0,1-1.87-3.51,10.49,10.49,0,0,1-.84-3.34,2.42,2.42,0,0,1,1-2.29l6-3.89q4.32-2.79,9.52-6t9.4-5.5q4.18-2.33,5.29-2.33a10.89,10.89,0,0,1,3.64.89,18.17,18.17,0,0,1,4.06,2.16,3.43,3.43,0,0,1,1.78,2.62Z"/></svg>