<svg id="Camada_1" data-name="Camada 1" xmlns="http://www.w3.org/2000/svg" viewBox="0 0 230.76 200"><title>Doações - Presencial Roupas</title><path d="M69,128.3c-1.74,9.72-7,16.9-15.53,21.75a2.27,2.27,0,0,0-.87,1.68c-.07,4.24,0,8.48,0,12.71a2.14,2.14,0,0,0,1,2,26.77,26.77,0,0,1,4,3.5c3.85,4.26,5.07,9.4,4.86,15-.13,3.65-1.37,5-5,5H41.61a13.17,13.17,0,0,1-13.13-13.18c0-10.83,0-21.65,0-32.48a59.62,59.62,0,0,0-.41-6.26c-.56-5.44-2.58-10.5-4.4-15.57-4.1-11.38-5.53-23-3.36-34.93a5.86,5.86,0,0,0-.09-1c-1.88.63-3.63,1.15-5.32,1.81A10.63,10.63,0,0,1,4.68,70a25,25,0,0,1,10-4.45,39.94,39.94,0,0,1,18.28.84,2.67,2.67,0,0,0,2-.14A38.21,38.21,0,0,1,57.1,59.76q30.23.09,60.46,0c8.37,0,14.43-4,18.14-11.53,1.54-3.11,2.82-6.34,4.29-9.48a1.88,1.88,0,0,0-.32-2.32c-3-3.66-6-7.3-8.88-11.11a10.94,10.94,0,0,1-2.08-4.81,9.19,9.19,0,0,1,11.48-10.23c5.05,1.18,10.05,2.6,15.06,3.93,3.74,1,7.45,1.92,11.41,1.72,5.68-.3,11.39-.57,17.07-.38,9.37.32,16.66,4.68,21.49,12.74,1.67,2.8,2.61,6,4,9.24,1.19.12,2.76.2,4.31.46a20.15,20.15,0,0,1,16.89,20.38,19.8,19.8,0,0,1-17.82,19.17c-3.11.34-6.29.15-9.44.19A14.31,14.31,0,0,0,189,91.84c0,2.1-.08,4.21,0,6.3A40.35,40.35,0,0,1,182.41,122a26.92,26.92,0,0,0-4.15,14.53c0,8.73,0,17.46,0,26.19a1.7,1.7,0,0,0,1.17,1.84A19.12,19.12,0,0,1,188,172c2.58,4.05,3.12,8.54,3,13.22-.11,3.31-1.47,4.76-4.78,4.76q-9.15,0-18.32,0c-5.95,0-10.4-3.05-12.34-8.66-5.56-16.06-11-32.13-16.52-48.21-1.42-4.13-3.59-5.74-7.92-5.74H69.23C69.11,127.81,69,128.05,69,128.3Zm107.94,44.11a28.4,28.4,0,0,0-3.68-1.45c-2.13-.76-3.1-2-3.1-4.2,0-10.41-.07-20.83,0-31.24a35.46,35.46,0,0,1,5.55-18.38c.66-1.08,1.28-2.19,2-3.37a9.18,9.18,0,0,0-1-.53c-20.95-7.47-37.78-20.71-52.12-37.44-1.89-2.2-3.57-4.58-5.44-6.8a2.8,2.8,0,0,0-1.85-1Q90.19,68,63.1,68c-.35,0-.7,0-1.24.09,6,16.5,7.66,33.58,7.65,51.1H131c8.12,0,13.26,3.75,15.89,11.48q8,23.61,16.12,47.19c1.07,3.13,2.32,4,5.67,4,4.12,0,8.24,0,12.36,0h1.61C183,178.42,180.41,174.21,176.92,172.41ZM212.25,69.34a11.63,11.63,0,0,0,10-12.48,12,12,0,0,0-11.41-11c-1.82-.12-3.66,0-5.49-.06-2.74-.05-4.46-1.58-4.45-4.35a18.13,18.13,0,0,0-19-17.87c-5.07.1-10.15.24-15.23.51-4.55.25-8.88-.76-13.21-1.93-4.81-1.3-9.62-2.58-14.46-3.79l-.15,0a1.48,1.48,0,0,0-1.4,2.2l.11.16c3.3,4.2,6.61,8.41,10.07,12.49a5.36,5.36,0,0,1,.85,6.57c-1.43,2.81-2.57,5.77-3.93,8.63a2.26,2.26,0,0,0,.16,2.51c3.66,5.57,8.48,10,13.71,14a134.18,134.18,0,0,0,24.5,14.54c.72.34,1.25.61,1.91-.31,4.78-6.67,11.32-9.85,19.5-9.68.71,0,1.42,0,2.14,0v-.15A35.94,35.94,0,0,0,212.25,69.34ZM47.75,172.54c-2.77-1.25-3.67-3.13-3.32-6.45a77.41,77.41,0,0,0,0-16.53c-.33-3,.6-4.75,3.11-5.87,8.81-3.91,13.4-10.77,13.67-20.46a164.39,164.39,0,0,0-2.49-35.51,100.48,100.48,0,0,0-5.1-18.09c-.45-1.14-1-1.72-2.25-1.33-2.89.92-5.79,1.82-8.66,2.83a1.91,1.91,0,0,0-.89,1.35c-.46,3.2-3,4.7-6,3.49a35.85,35.85,0,0,0-17.44-2.8,18.3,18.3,0,0,0-8,2.79c-1.7,1.1-2.21,2.33-1.55,3.65s2,1.6,3.86.83a25.82,25.82,0,0,1,13.59-1.81c3.43.47,4.88,3,3.53,6.19a32.78,32.78,0,0,0-2.34,11.31c-.46,9.23,1.73,17.91,4.85,26.46,1.83,5,3.52,10.13,4,15.52.18,2.08.31,4.18.32,6.27,0,10.67,0,21.33,0,32,0,3.89,1.59,5.47,5.49,5.47,3.41,0,6.82,0,10.22,0h1.94C53.61,177.39,51.54,174.25,47.75,172.54Zm133-70.41c.14-4.58.25-9.17.27-13.76,0-.4-.64-.92-1.1-1.17-6.49-3.61-13.15-6.94-19.47-10.83A75.52,75.52,0,0,1,139.83,58.2a3.36,3.36,0,0,0-.47-.4,29.19,29.19,0,0,1-12,8.5c14.36,17.69,31.12,31.79,53,39.59C180.53,104.44,180.75,103.29,180.79,102.13Z"/></svg>