<svg id="Camada_1" data-name="Camada 1" xmlns="http://www.w3.org/2000/svg" viewBox="0 0 200 200"><defs><style>.cls-1{fill:none;stroke:#000;stroke-miterlimit:10;stroke-width:8px;}</style></defs><title>Doações - Presencial Acessósrios</title><path class="cls-1" d="M50.08,87.65S37.6,87.56,33,91.3"/><path d="M191.66,150.65c0-.3,0-.6,0-.9A48.17,48.17,0,1,0,143.52,200h.31c1.7,0,3.41-.09,5.13-.26a47.37,47.37,0,0,0,33.08-19l.32-.44c.26-.36.53-.71.79-1.08l.18-.28c.37-.54.73-1.1,1.07-1.65l.21-.32a48.13,48.13,0,0,0,3.51-6.95v0c.31-.76.6-1.52.87-2.29,0-.11.07-.23.11-.34q.33-1,.63-2c.06-.2.12-.41.17-.62.16-.55.31-1.12.44-1.68l.21-.91c.1-.46.19-.92.28-1.39s.15-.79.22-1.19.11-.74.16-1.11.13-1,.18-1.45c0-.3.06-.6.09-.9,0-.53.09-1.07.12-1.61,0-.29,0-.59,0-.89,0-.52,0-1,0-1.55,0-.09,0-.18,0-.27C191.69,151.44,191.67,151.05,191.66,150.65Zm-78.6,27.28a40.11,40.11,0,0,1-7.92-37.88l.09-.28c.14-.44.29-.87.44-1.29.09-.26.18-.52.28-.77l.27-.68a39.61,39.61,0,0,1,6.85-11.19c.87,1.51,1.75,3,2.61,4.44a117.35,117.35,0,0,1,6.69,12.34c3.11,7,2.61,14.64-1.44,22-1.75,3.19-3.67,6.36-5.53,9.43Q114.22,176,113.06,177.93Zm30.46,14a39.94,39.94,0,0,1-24.71-8.54q1.14-1.91,2.29-3.79c2-3.31,4.1-6.74,6.05-10.19,6.59-11.62,6.58-23.4,0-35-1.93-3.38-3.92-6.67-6-10.14q-1.2-2-2.41-4l.39-.31,1.08-.75c.89-.61,1.78-1.23,2.69-1.83h0A40,40,0,0,1,133.33,113l.68-.14.26-.06a42.37,42.37,0,0,1,12.43-1l.57,0,.93.1c.47.06.93.11,1.39.18l.11,0a39.85,39.85,0,0,1,18.74,8.23l-2.32,3.86c-2.1,3.48-4.08,6.77-6.06,10.14a33.64,33.64,0,0,0-4.3,23.93,38.39,38.39,0,0,0,5.41,13.12c1.83,2.94,3.61,6,5.35,8.89.59,1,1.19,2,1.79,3A39.94,39.94,0,0,1,143.52,192ZM174,177.92q-1.2-2.08-2.42-4.15c-2.35-4-4.79-8.13-6.76-12.35a21.66,21.66,0,0,1-.12-18.51c2-4.31,4.45-8.54,6.83-12.63q1.28-2.19,2.54-4.4c.35.38.68.78,1,1.18A40,40,0,0,1,174,177.92Z"/><path d="M124.3,82.09a4.86,4.86,0,0,1,4-2.13c1.32.13,2.66.21,4,.21a40.1,40.1,0,0,0,33.14-62.68C160.4,9.73,153,4.33,143.31,1.4c-1.56-.47-3.15-.79-4.7-1.1A71.1,71.1,0,0,0,127.3.16c-21.69,3-36.44,21-35.06,42.69a5.44,5.44,0,0,1-2.43,5.26A141.16,141.16,0,0,0,56.49,81.44a5.18,5.18,0,0,1-5.08,2.36,17.35,17.35,0,0,0-3.88,0,4.44,4.44,0,0,0-.74.18,39.79,39.79,0,0,0-9.51,1.54,4.6,4.6,0,0,0-1.4.14c-.37.09-.73.23-1.1.36l-.28.11A39.47,39.47,0,0,0,8.32,123.75c0,.09,0,.19,0,.28a39.82,39.82,0,0,0,3,15.16,36.32,36.32,0,0,0,12.32,16.34,39.9,39.9,0,0,0,24.8,8.6h.7a35.88,35.88,0,0,0,12.68-2.3A40.17,40.17,0,0,0,82.5,145.15a37.66,37.66,0,0,0,5.78-16.85,1.36,1.36,0,0,0,0-.2c0-.26,0-.52.06-.78,0-.51.08-1,.11-1.52,0-.27,0-.54,0-.8s0-.65,0-1c0-.1,0-.2,0-.3,0-1,0-1.92-.07-2.9-.14-2.35.5-3.84,2.13-5A143.34,143.34,0,0,0,124.3,82.09ZM151.59,59.6a4.93,4.93,0,0,1,3.71-1.68,7,7,0,0,1,3.43,1l-7.48,7.46A5.17,5.17,0,0,1,151.59,59.6ZM112.94,20.22c-1.79,2-4.52,2.26-7,.78.2-.28.41-.55.62-.82l6.07-6.06.69-.51A5.11,5.11,0,0,1,112.94,20.22Zm38.13-6.55a30,30,0,0,1,7.46,7.42,5.36,5.36,0,0,1-6.77-.64A5.19,5.19,0,0,1,151.07,13.67ZM28.94,104.22a5.18,5.18,0,0,1-6.91.6l.43-.57,6.13-6.13c.27-.21.54-.42.82-.62A5.19,5.19,0,0,1,28.94,104.22Zm38.73,39.31a5,5,0,0,1,3.8-1.79,6.42,6.42,0,0,1,3.38,1.06l-7.41,7.42A5.21,5.21,0,0,1,67.67,143.53Zm-38.13,6.56a30.78,30.78,0,0,1-7.44-7.45,5.18,5.18,0,0,1,6.78.66A5.36,5.36,0,0,1,29.54,150.09Zm57-41c-4.36,3.09-6.3,7-5.93,12.08a33.13,33.13,0,0,1,0,4.88,29.13,29.13,0,0,1-2.2,9.65c-5.85-2.8-11.35-2.23-15.59,1.65-4.64,4.22-5.47,9.51-2.59,16.58a32.12,32.12,0,0,1-23.77,0c2.83-6.44,2.14-11.84-2.06-16.07s-9.77-5-16.14-2.17a32.34,32.34,0,0,1,0-23.76c6,2.77,11.36,2.2,15.59-1.66,4.58-4.19,5.42-9.31,2.65-16.52.52-.2,1-.42,1.57-.67a32.51,32.51,0,0,1,9-1.65l.22-.18.36.08a23,23,0,0,0,3.59.31c5.24,0,9.22-2.16,12.34-6.62a123.84,123.84,0,0,1,30-30c4.87-3.44,6.89-7.77,6.36-13.62a28.44,28.44,0,0,1,2.15-13.3c6.12,3,11.66,2.22,16.08-2.2s5.2-10,2.2-16a32.28,32.28,0,0,1,23.72.05c-2.74,5.68-2.25,11.08,1.43,15.31a12.91,12.91,0,0,0,6.82,4.22,13.67,13.67,0,0,0,10-1.34c3.77,4.58,3.69,19.7.17,23.8-6.29,3-11.7-2.36-16.13,2-4.58,4.5-5.37,10.08-2.31,16.2a33.42,33.42,0,0,1-14.87,2.13,12.2,12.2,0,0,0-11.33,5.46c-1.2,1.67-2.28,3.13-3.32,4.47A133,133,0,0,1,86.57,109.08Z"/><path d="M48.52,110.51h-.1a13.34,13.34,0,0,0-9.48,3.89,13.14,13.14,0,0,0-3.9,9.41,13.34,13.34,0,0,0,13.31,13.27h0a13.29,13.29,0,0,0,.14-26.57Zm3.81,17.16a5.54,5.54,0,0,1-3.94,1.61h0a5.53,5.53,0,0,1-5.55-5.48,5.42,5.42,0,0,1,1.61-3.88,5.59,5.59,0,0,1,3.93-1.62h0a5.54,5.54,0,0,1,5.56,5.48A5.46,5.46,0,0,1,52.33,127.67Z"/><path d="M132.16,53.28h.08a13.32,13.32,0,0,0,13.29-13.42,13.34,13.34,0,0,0-13.29-13.27h0a13.35,13.35,0,0,0-.05,26.69Zm0-18.89h.09a5.43,5.43,0,0,1,3.8,1.55,5.55,5.55,0,0,1,1.68,3.92,5.48,5.48,0,0,1-5.42,5.63,5.26,5.26,0,0,1-3.89-1.55,5.57,5.57,0,0,1,3.74-9.55Z"/></svg>