<svg id="Camada_1" data-name="Camada 1" xmlns="http://www.w3.org/2000/svg" viewBox="0 0 200 200"><title>Doações - Presencial Bazar</title><path d="M194.78,124.91c-4.93,0-9.87-.07-14.81,0a7.17,7.17,0,0,0-3.65,1c-4.68,3.14-9.43,6.23-13.81,9.76-5,4-9.81,8.09-15.44,11.16A43.69,43.69,0,0,1,132,152a3.92,3.92,0,0,1-.19-.69q-1.42-17.18-2.83-34.37c-.87-10.42-1.68-20.84-2.68-31.25A20.47,20.47,0,0,0,110.42,67.4c-1.77-.4-2.06-1.15-2-2.74,0-9.66.16-19.33-.09-29A27.33,27.33,0,0,0,84,9.17c-10-1.08-20.2-.5-30.31-.61A21.63,21.63,0,0,0,50,8.83,29,29,0,0,0,25.28,37.76c-.09,9.09-.05,18.19,0,27.29,0,1.42-.37,2-1.83,2.29A20.28,20.28,0,0,0,7.72,84.19c-.65,4.36-.9,8.78-1.27,13.17q-2.54,30-5,60c-.36,4.34-.91,8.67-1.33,13l.19,1.26c1.13,2.47,3.09,3.22,5.71,3.22q41.71-.08,83.43,0h2.42v10.74c0,4.6,1.31,5.92,5.9,5.92,15.46,0,30.93,0,46.39,0a9.51,9.51,0,0,0,5.4-1.64q13.75-9.27,27.59-18.43c.57-.37,1.15-.72,2-1.26v2.28c0,4.68,0,9.36,0,14,0,3.35,1.53,4.92,4.86,5,3.64.07,7.28.06,10.91,0,3.41,0,5-1.67,5-5.09q0-28.16,0-56.31A5.14,5.14,0,0,0,194.78,124.91ZM33.58,38c.14-10.79,7-19.75,17.41-20.69a177.58,177.58,0,0,1,31.7,0c10.36.92,17.35,10,17.41,20.47.05,9.36,0,18.71,0,28.07a7,7,0,0,1-.11.79H33.74a12.85,12.85,0,0,1-.17-1.55C33.56,56.05,33.47,47,33.58,38ZM100,75.07V91.53H92V75.07Zm-58.2,0V91.52H33.71V75.06Zm55.8,86a17.11,17.11,0,0,0-2.86,3.67,3.1,3.1,0,0,1-3.18,1.86q-40.14-.08-80.28,0H9c.41-5.11.79-10,1.2-14.79q1.47-17.67,3-35.33c.88-10.35,1.67-20.71,2.75-31a11.44,11.44,0,0,1,9.34-9.81V93.88c0,4.85,1.23,6.06,6.13,6.07h2.06v.23a4,4,0,0,0,4,3.82H38a4,4,0,0,0,4-3.85V100H45c3.69,0,5.24-1.53,5.25-5.19,0-6.49,0-13,0-19.61H83.36c0,.62.08,1.3.08,2,0,5.59,0,11.18,0,16.76,0,4.73,1.31,6.06,6,6.06h2.31v.2a4.05,4.05,0,0,0,4,3.85H96a4,4,0,0,0,4-4h3.24c3.59,0,5.07-1.5,5.09-5.13,0-5.71,0-11.43,0-17.14V75.57c5.12.83,9.17,5.46,9.63,11q2.2,26.21,4.35,52.41c.32,3.82.67,7.64,1,11.45.08,1,.1,1.92.16,3.09-3.32.23-6.49.42-9.64.67C107.71,154.65,102.06,156.49,97.59,161Zm93.94,21.89h-4.09v-2c0-5.85,0-11.7,0-17.55,0-1.94-.38-3.63-2.23-4.61s-3.5-.39-5.1.68q-17,11.35-34.05,22.67a5.11,5.11,0,0,1-2.65.93c-14,.06-27.94,0-41.91,0-.38,0-.76-.05-1.56-.11.19-3.7,0-7.44.67-11,1-5.16,5.94-8.64,12.33-9.33,6-.64,12-1.08,18-1.88,12.95-1.73,23.92-7.68,33.8-16,4.5-3.81,9.38-7.17,14.1-10.71a3.37,3.37,0,0,1,1.74-.77c3.57-.07,7.13,0,10.93,0Z"/><path d="M125.46,73.18c-1.15,3.71,1.15,6.36,5,5.8,2.18-.31,4.35-.7,6.53-1L148,76.1,137.77,107l7.87,2.62c4.33-13,8.6-25.79,12.88-38.6h7.95c4.32,13,8.57,25.73,12.87,38.61l7.86-2.64L177,76.19c.69.07,1.2.1,1.69.18,5.25.86,10.5,1.76,15.75,2.59,4,.62,6.25-2,5.08-5.85a78.79,78.79,0,0,0-2.55-7.55,7.65,7.65,0,0,1,0-6.15c1-2.52,1.79-5.14,2.56-7.75a5.16,5.16,0,0,0,.12-2.64c-.57-2.28-2.3-3.34-5-2.94-5.33.79-10.63,1.76-15.95,2.58-3.86.59-7.23,2-9.66,5.21a2.11,2.11,0,0,1-1.47.46c-3.38,0-6.75.05-10.13,0a2.8,2.8,0,0,1-1.87-.79,11.69,11.69,0,0,0-6.78-4.26q-9-1.66-18-3.11c-4.35-.69-6.56,2-5.22,6.15.94,2.9,2,5.76,2.86,8.68a5.91,5.91,0,0,1,0,3.15C127.54,67.17,126.4,70.14,125.46,73.18Zm49.55-12c.08-1.67.84-3.22,2.49-3.6,3.88-.9,7.82-1.52,12.46-2.39-2.86,5.06-3,9.64-.26,14.22l-.55.29L175,67.32C175,65.15,174.91,63.14,175,61.15ZM139.73,56q3.17.49,6.31,1.08c2.65.49,3.91,2,4,4.69,0,1.8,0,3.6,0,5.55l-14.85,2.46c2.55-4.9,3-9.48-.24-14.43C137,55.63,138.38,55.79,139.73,56Z"/><rect x="21.2" y="141.68" width="8.12" height="8.07" rx="3.99"/><rect x="21.22" y="154.2" width="8.13" height="8.03" rx="3.99"/><rect x="104.48" y="170.73" width="7.98" height="8.16" rx="3.99"/><rect x="116.96" y="170.73" width="7.98" height="8.16" rx="3.99"/></svg>