<svg id="Camada_1" data-name="Camada 1" xmlns="http://www.w3.org/2000/svg" viewBox="0 0 200 200"><title>Doações - Rifa</title><path d="M158.83,51.06c2.3.4,3.86-.54,5.5-1.1,1.89-.65,3.76-1.24,5.81-.74a8,8,0,0,1,5,4.25c1.56,2.77,2.86,5.68,4.37,8.48,2.69,5,5.46,9.94,8.18,14.92,1.79,3.28,3.62,6.55,5.34,9.87,2.13,4.12,4.18,8.28,6.24,12.43a5.53,5.53,0,0,1-.38,6.09,51.74,51.74,0,0,1-5.3,5.58c-2.45,2.35-4.26,5-4.41,8.54a13.47,13.47,0,0,0,1.4,6.19,9.46,9.46,0,0,1,.56,7.53,9.23,9.23,0,0,1-4.43,4.58c-2.51,1.41-5.11,2.65-7.63,4-5.48,3-10.93,6.14-16.4,9.19-3.59,2-7.2,4-10.79,6-5.69,3.17-11.36,6.36-17,9.52-3,1.69-6.1,3.33-9.14,5q-10.5,5.76-21,11.54c-4.4,2.42-8.78,4.9-13.19,7.3-4.74,2.58-9.51,5.1-14.28,7.61a22.58,22.58,0,0,1-4.36,1.94,5.3,5.3,0,0,1-5.17-1.23,78,78,0,0,1-6.11-6.22c-2.67-3.11-8.85-4.27-12.55-2.08a9,9,0,0,1-7.95.83c-2.43-.91-3.94-2.87-5.14-5-1.4-2.53-2.53-5.21-3.9-7.77-1.8-3.36-3.75-6.65-5.58-10a39.4,39.4,0,0,1-2-4.26c-1.65-4.09-4.6-7-8-9.58S9.31,149.14,6,146.16,1.85,139.38,4.41,135a34.88,34.88,0,0,0,2.5-4.51,10.61,10.61,0,0,0-1.59-10.72c-1.44-2-2.89-4-4.25-6-1.8-2.71-1.12-5.4.52-7.83,1.53-2.26,3.37-4.3,5.07-6.44C9.34,96.13,12,92.75,14.71,89.4c2.4-3,4.85-5.91,7.25-8.89,2.67-3.32,5.3-6.67,8-10C32,68,34,65.53,36,63s4-5,6-7.42L48.16,48c2.38-2.94,4.78-5.87,7.16-8.81,2-2.53,4.08-5.08,6.11-7.62,2.36-2.95,4.71-5.92,7.07-8.86s4.63-5.68,6.91-8.54C77.14,12,78.8,9.79,80.54,7.63c2-2.47,4.34-4.61,7.61-4.75a11.45,11.45,0,0,1,4.72,1.34c1.56.67,2.91,1.82,4.46,2.5,4,1.73,7.67.89,11.07-1.67,1.65-1.26,3.27-2.58,4.95-3.79,2.52-1.8,5.07-1.55,7.64,0,3.72,2.17,6.89,5.07,10.16,7.84,3,2.57,6.11,5.06,9.16,7.61,2.55,2.14,5,4.36,7.62,6.47,3.34,2.75,6.75,5.41,10.08,8.16a17.62,17.62,0,0,1,4.83,5.19c1.42,2.68.95,5.19-.36,7.69C161.32,46.41,160.13,48.62,158.83,51.06ZM77.87,170a6.15,6.15,0,0,0,1.16-.83c1.89-2.21,3.76-4.42,5.6-6.66,2.17-2.65,4.28-5.33,6.44-8,2.38-2.94,4.79-5.86,7.18-8.79,2-2.47,4-4.93,6-7.41,2.26-2.82,4.48-5.67,6.75-8.49,2.4-3,4.85-5.91,7.25-8.89,2.7-3.35,5.35-6.73,8-10.09,2.3-2.85,4.63-5.67,6.93-8.52,2.74-3.42,5.45-6.86,8.2-10.28,2.35-2.91,4.72-5.8,7.09-8.7l6.86-8.42c1.17-1.44,2.36-2.85,3.49-4.32a1.76,1.76,0,0,0-.09-2.66c-.79-.74-1.43-1.64-2.18-2.43-4.18-4.35-4.84-9.69-4.19-15.37a19.74,19.74,0,0,1,3-8c.39-.65,1.14-1.37,1.05-1.95s-.94-1.19-1.52-1.71c-2.46-2.2-4.92-4.4-7.43-6.53-3-2.6-6.16-5.14-9.24-7.7-2.83-2.37-5.64-4.77-8.5-7.1-3.81-3.12-7.71-6.13-11.47-9.32-1-.87-1.56-.59-2.36.13-1.29,1.14-2.6,2.29-4,3.29A18,18,0,0,1,97.2,14.19a15.1,15.1,0,0,1-6.89-3.37c-1.46-1.23-2-1.19-3.14.13-1.67,2-3.33,4-5,6.05-2.24,2.7-4.5,5.37-6.72,8.09-3,3.61-5.86,7.25-8.81,10.87-2,2.53-4.15,5-6.2,7.56-2.38,2.94-4.7,5.93-7.07,8.87s-4.85,5.9-7.25,8.88c-2.73,3.38-5.41,6.79-8.13,10.18-2.29,2.86-4.62,5.68-6.91,8.54s-4.6,5.79-6.9,8.68-4.53,5.74-6.81,8.6c-1.91,2.39-3.85,4.75-5.77,7.14-1.39,1.72-2.79,3.43-4.1,5.21a1.69,1.69,0,0,0-.2,1.48,7.21,7.21,0,0,0,1.81,2.24,11.6,11.6,0,0,1,3.71,5.1,19.15,19.15,0,0,1,1.48,10.65c-.43,2.56-.84,5.08-2.55,7.17a11.24,11.24,0,0,0-1.53,2.44,1.68,1.68,0,0,0,.1,1.49,39.19,39.19,0,0,0,3.56,3.38c3.75,3.13,7.55,6.22,11.32,9.32,2.51,2.06,5,4.11,7.53,6.18q4.13,3.42,8.22,6.86c2.43,2,4.84,4.09,7.27,6.14.66.55,1.15.53,1.92-.07A51.25,51.25,0,0,1,57,167.14a16.21,16.21,0,0,1,10.15-1.86c3.19.41,6.14,1.16,8.65,3.3A19.8,19.8,0,0,0,77.87,170Zm-40.95,1.74-.28.29c.56,1,1.11,2,1.66,3,1.43,2.61,2.73,5.3,4.31,7.82,1.21,1.9,1.35,1.76,3.39.93,4.82-2,9.72-2.47,14.66-.51,4.4,1.75,7.54,5.16,10.43,8.75.77,1,1.24.8,2,.37q9.33-5.17,18.65-10.32c4-2.22,8-4.41,12.07-6.63q8.85-4.91,17.68-9.84l10.36-5.76c6.69-3.73,13.37-7.48,20.08-11.18,7.45-4.11,14.92-8.16,22.39-12.23,2.77-1.51,5.63-2.87,8.3-4.53,2.4-1.5,2.55-1.51,1.57-3.37a20,20,0,0,1-2-9.39,16.86,16.86,0,0,1,4.94-12c1.78-1.91,3.79-3.61,5.71-5.4q-3.63-6.93-7.25-13.82c-1.69-3.2-3.38-6.41-5.1-9.59-2.88-5.31-5.79-10.59-8.67-15.89-.92-1.7-1.7-3.48-2.72-5.1a2.13,2.13,0,0,0-1.84-.76c-2,.48-4,1.26-6,1.81-1.13.31-1,.82-.43,1.52,1.18,1.38,2.36,2.76,3.56,4.12,2.13,2.42,3,5.9,1.29,8.8a67.76,67.76,0,0,1-4.89,6.27c-1.69,2.19-3.37,4.4-5,6.66a1.82,1.82,0,0,0,0,1.55q3.27,6.33,6.66,12.59c2.42,4.5,4.95,8.94,7.32,13.47a10.92,10.92,0,0,1,1.11,7.18,8.75,8.75,0,0,1-4.45,6c-3.51,2.05-7.19,3.79-10.76,5.75-6,3.29-11.92,6.65-17.89,10-3.07,1.7-6.17,3.35-9.24,5q-8.81,4.88-17.57,9.79c-3,1.69-6,3.44-9.09,5.1-2.81,1.52-5.59,3.13-8.51,4.4a20.85,20.85,0,0,0-9.17,7.12,7,7,0,0,1-6.8,3.11c-2.17-.22-3.75-1.44-5.48-2.49-4-2.42-8.11-3-12.46-.83-2,1-3.28,2.63-4.67,4.17-2,2.27-6.54,2.48-8.71,1.44-2.34-1.12-4.06-3-5.89-4.74C39.19,173.41,38,172.61,36.92,171.72ZM100,154.5l.25.26c.31-.15.63-.29.93-.45l12.73-6.93c4.2-2.3,8.42-4.57,12.61-6.9,6.62-3.7,13.19-7.49,19.83-11.14,5-2.76,10.08-5.37,15.11-8.07a17,17,0,0,0,2-1.49,1.77,1.77,0,0,0,.46-2.21,16.66,16.66,0,0,0-1.2-2.48c-1.31-2.3-2.72-4.55-4-6.89-2.3-4.29-4.52-8.64-6.78-13-.5-1-1-1.88-1.67-3Z"/><path d="M71,154.15c-3.09.21-5.55-1.28-7.79-3.16-5.76-4.87-11.43-9.87-17.21-14.73-5.4-4.54-10.93-8.92-16.35-13.44a28.59,28.59,0,0,1-4.53-4.47c-2.53-3.34-2.46-7.19.15-10.92,2-2.9,4.31-5.61,6.51-8.38,1.93-2.43,3.89-4.83,5.83-7.24l6.13-7.61C45.86,81.6,48,79,50.05,76.4s4.19-5.1,6.27-7.66c3.27-4,6.51-8.09,9.78-12.11,2.14-2.63,4.33-5.2,6.46-7.83,2.36-2.9,4.68-5.83,7-8.75,3-3.73,5.84-7.61,9-11.15,3.82-4.23,8.86-4.42,13.26-.82,4.13,3.37,8.19,6.83,12.3,10.25,3.45,2.87,6.92,5.71,10.37,8.59s6.64,5.57,10,8.36c2,1.71,4.13,3.35,6,5.18,3.43,3.31,3.43,7.92,1.13,11.68a49.54,49.54,0,0,1-4.1,5.2c-2.59,3.14-5.21,6.25-7.8,9.38-2.16,2.6-4.33,5.2-6.46,7.83-2.38,2.93-4.71,5.91-7.09,8.85-2.07,2.56-4.19,5.1-6.27,7.66q-3.36,4.13-6.67,8.27-3.06,3.81-6.09,7.63l-8.85,11.15c-2.75,3.47-5.48,6.94-8.26,10.39-.88,1.09-1.87,2.09-2.82,3.12A7.47,7.47,0,0,1,71,154.15ZM30.2,112.8c.28,1.58,1.34,2.3,2.29,3.08,2.68,2.23,5.41,4.4,8.09,6.63s5.12,4.4,7.71,6.56c3.44,2.88,6.92,5.72,10.36,8.6s6.71,5.74,10.14,8.52c2.35,1.9,3.21,1.05,4.68-.72s2.9-3.75,4.38-5.6c2.29-2.86,4.63-5.67,6.92-8.53,2.75-3.41,5.47-6.85,8.2-10.27,2-2.55,4-5.11,6.09-7.64s4-4.92,6-7.39,4-4.86,5.93-7.31c2.37-2.94,4.71-5.91,7.09-8.85,2-2.53,4.14-5,6.2-7.56q4.55-5.56,9.06-11.15a27.56,27.56,0,0,0,2.59-3.6,2.39,2.39,0,0,0-.2-2,9.35,9.35,0,0,0-2-2.1c-3.27-2.72-6.57-5.38-9.85-8.08-3.5-2.88-7-5.73-10.47-8.66-3.89-3.3-7.7-6.7-11.58-10-1.76-1.5-3.37-3.27-5.71-3.85a2.07,2.07,0,0,0-1.62.19A44.35,44.35,0,0,0,90.4,37.3c-2.51,3-4.87,6.2-7.32,9.28-2.61,3.27-5.28,6.49-7.89,9.76s-4.93,6.35-7.44,9.49c-3,3.74-6,7.43-9,11.17-2.66,3.32-5.29,6.68-7.95,10-2,2.46-4,4.88-5.93,7.32-2.45,3-4.87,6.1-7.34,9.11-2,2.43-4.09,4.77-6.08,7.21A13.53,13.53,0,0,0,30.2,112.8Z"/><path d="M93.52,69.68a20.51,20.51,0,0,1,.68,3.77c0,2.88-.35,5.76-.41,8.64,0,1.6.07,3.21,2,4,2.54,1,5,2.16,7.54,3.26.94.41,1.93.75,2.83,1.25,1.68.93,1.72,2.75,0,3.53-1.58.7-3.34,1-5,1.52-2.44.81-4.9,1.61-7.26,2.63-.55.24-1,1.35-1,2.1-.2,2.47-.16,5-.31,7.45a27.27,27.27,0,0,1-.54,3.7c-.18,1-.78,1.94-1.69,1.91a3.23,3.23,0,0,1-2.2-1.33c-2-2.79-3.74-5.7-5.62-8.54-.84-1.27-1.75-2.11-3.57-1.6-3.12.88-6.32,1.45-9.51,2.09a11.42,11.42,0,0,1-2.74.17A1.51,1.51,0,0,1,65.59,102a12.4,12.4,0,0,1,1.73-2.85c2-2.64,4.14-5.23,6.23-7.84.74-.93.08-1.72-.33-2.41-1.29-2.18-2.73-4.26-4-6.43a26.83,26.83,0,0,1-2-4c-.66-1.7.4-2.94,2.11-2.44,2.21.65,4.36,1.48,6.51,2.28,1.37.51,2.73,1.09,4.07,1.68a2.88,2.88,0,0,0,3.72-.89c1.51-1.87,2.9-3.86,4.49-5.66C89.5,71.9,90.73,70,93.52,69.68Z"/></svg>