<svg id="Camada_1" data-name="Camada 1" xmlns="http://www.w3.org/2000/svg" viewBox="0 0 200 200"><title>Doações - Voluntariado</title><path d="M191.76,75.22c0-5-3-8-8.06-8a38.52,38.52,0,0,0-4.63.62c-.69-3.21-2.45-5.54-5.86-6.2-3.19-.63-6.19-.18-8.64,2.09-5.39-4-10.32-3.06-14.36,2.62a2.77,2.77,0,0,1-.54-.12c-6.47-2.47-12.62.47-12.34,8,.33,9.17.08,18.36.08,27.53v2c-2.68-.76-3.31-2.35-3.07-4.66a48.67,48.67,0,0,0,0-6,5,5,0,0,0-5.15-5.22c-.82,0-1.64,0-2.48,0V82.49c6.68-1.08,8.39-3.08,8.39-9.73q0-29,0-58a20.26,20.26,0,0,0-.06-2.34,7.07,7.07,0,0,0-7.17-6.59c-1.79,0-3.58.29-5.43.45C121.27,2.57,120.73,2,116.82,0h-5.07l-3.87,2.17L104.32,0H99.25a8.62,8.62,0,0,0-5.49,5c-8-3.14-13,.23-13,8.61V42.83a9.93,9.93,0,0,0-7.57-2.77,9.28,9.28,0,0,0-8.36,6.07,9.15,9.15,0,0,0,2,10.31c3.16,3.36,6.37,6.7,9.8,9.79,2.82,2.56,4.68,5.15,4.32,9.31-.3,3.43,2.49,6.06,6,6.59,1.13.18,2.29.21,3.51.32v5.47c-1.34,0-2.56,0-3.78,0a4.92,4.92,0,0,0-4.93,4.81c-.09,4-.08,7.94,0,11.91,0,1.86.76,3.7,2.57,4.25s1.82,1.8,1.82,3.25q0,40.32,0,80.64c0,.72,0,1.44,0,2.15a5,5,0,0,0,5.33,5c11.06,0,22.13,0,33.19-.05a6.69,6.69,0,0,0,3.4-1.13c1.77-1.15,1.94-3.08,1.94-5q0-33.21,0-66.4v-2.24l.56-.31a33.42,33.42,0,0,0,2.85,3.08c2.83,2.35,4.46,5,4.19,9s3,6.72,7,6.87c.82,0,1.64,0,2.64,0v26.19c0,8.2,0,16.41,0,24.61,0,3.38,1.69,5.38,4.82,5.41q13.17.12,26.36,0c3,0,4.79-1.94,4.87-5,0-1.49,0-3,0-4.49h0V163.76h0q0-8.92,0-17.85v-2c6.33-.62,8.5-3,8.5-9.1V117.2Q191.77,96.21,191.76,75.22ZM86.67,70.74a6,6,0,0,0-2-4.66c-4.24-4.13-8.4-8.35-12.58-12.54a12,12,0,0,1-1.4-1.62,3.81,3.81,0,0,1,5.46-5.2c1.54,1.29,2.93,2.76,4.35,4.19,1.18,1.19,2.36,2.4,4.22,1.65s1.89-2.43,1.89-4.11c0-12,0-24.08,0-36.11,0-1.47.17-2.58,2.05-2.56s2.46.36,2.46,2.52q0,13.56,0,27.13c0,3.48.95,4.4,4.41,4.35,2.73,0,3.71-1,3.71-3.82q0-15.81,0-31.63c0-2.15.4-2.45,2.49-2.49,1.83,0,2.15,1,2.14,2.48,0,9,0,18,0,26.94v3.91c0,4,1.7,5.45,5.63,4.47a4.13,4.13,0,0,0,2.21-2.11,6.6,6.6,0,0,0,.27-2.87q0-15.12,0-30.26c0-1.43.08-2.59,2-2.56,2.13,0,2.49.27,2.5,2.45,0,10.47,0,21,0,31.43,0,3.1,1,4.06,4.11,4.06s4-.92,4-4.1q0-12.69,0-25.38c0-2.38.4-2.71,2.7-2.65,1.32,0,1.92.6,1.91,1.89s0,2.47,0,3.71V73.47c0,2.79-.19,3-3,3-.58,0-1.17,0-1.76,0-2.72.06-3.7,1-3.73,3.83,0,2.46,0,4.93,0,7.52l-1.53.11h-18.5l-4.33,0c0-2.6,0-5,0-7.38,0-3.15-.94-4.06-4.06-4.1C86.67,76.39,86.63,76.39,86.67,70.74ZM124,194H92.11V109.79h28.66a11.09,11.09,0,0,0,2.9,8.49,2.57,2.57,0,0,1,.44,1.62q0,36.58,0,73.19A8.15,8.15,0,0,1,124,194Zm-.72-90.26c-11.71.17-23.43.07-35.14,0a1.74,1.74,0,0,1-.48-.18V93.77c2.83,0,5.61,0,8.38,0,2,0,3.89,0,5.84,0h19c2.44,0,4.93,0,7.61,0,0,2.51,0,4.77,0,7,0,.3-.1.77-.29.86C126.59,102.41,125,103.7,123.29,103.72Zm58.38,34.16c-3.34,0-4.26.94-4.26,4.32q0,10.78,0,21.56h0v25c0,1.72,0,3.45,0,5.19H153.05v-51.1c0-4.3-.68-5-5-5-5.25,0-4.88.59-4.75-4.83a7.39,7.39,0,0,0-2.46-6c-4.25-4-8.33-8.24-12.46-12.4-2.16-2.18-2.35-4.47-.6-6.18s4-1.39,6.19.71c1.44,1.41,2.8,2.91,4.31,4.25a2.85,2.85,0,0,0,4.88-1.7,11.77,11.77,0,0,0,.11-2.14c0-12,0-24.09,0-36.13,0-1.64.7-2.16,2.23-2.16s2.36.4,2.31,2.1c-.08,2.47,0,4.94,0,7.42v20.5c0,1.57.23,3,1.92,3.71,3.67,1.45,6.21-.27,6.21-4.18q0-15.52,0-31c0-2.1.49-2.51,2.52-2.51,1.79,0,2.12,1,2.12,2.53q0,15.61,0,31.24c0,3.34,1,4.32,4.31,4.23,2.87-.07,3.81-1.07,3.81-4.2q0-15.81,0-31.63c0-1.64.74-2.17,2.25-2.17s2.33.45,2.29,2.13c-.06,3.06,0,6.12,0,9.18v22.65c0,1.56.2,3.06,1.85,3.76,3.58,1.51,6.27-.27,6.28-4.11q0-12.69,0-25.38c0-2.07.49-2.44,2.56-2.44s2.06,1.29,2.06,2.76q0,28.9,0,57.8C185.92,138.24,186,137.89,181.67,137.88Z"/><path d="M79.28,124.25c0-6.25,0-12.5,0-18.74,0-5.09-3-8-8-7.93a42.31,42.31,0,0,0-4.58.54C65.32,90.93,56.71,90,52.08,94c-4.58-3.79-11.81-3-14.36,2.72-.17-.06-.36-.11-.53-.18-5.66-2.33-12.63-.13-12.33,8,.33,9.16.08,18.35.08,27.53v1.52c-2.63-.65-5.09-1.75-7.54-1.75-4,0-7,2.33-8.45,6.14s-.6,7.46,2.25,10.43c3.14,3.3,6.29,6.61,9.68,9.64,2.83,2.51,4.5,5.11,4.21,9.15-.27,3.6,2.66,6.26,6.32,6.68,1,.11,2.05.16,3.29.25v2.2c0,5.92,0,11.84,0,17.77,0,4.11,1.73,5.84,5.8,5.84H64.9c4.2,0,5.87-1.7,5.88-6,0-5.93,0-11.85,0-17.77v-2.08l2-.25c3.39-.44,5.94-2.61,6.3-5.94a51,51,0,0,0,.19-6.43h0V138h0ZM68.93,168.18c-3.08,0-4,1-4,4.16,0,5,0,10,0,15V194H40.56V172.91c0-4-.72-4.74-4.81-4.74-5.68,0-5,.35-4.91-4.88a7.45,7.45,0,0,0-2.51-6c-4.33-4.13-8.52-8.41-12.71-12.69-1.93-2-2-4.24-.28-5.88s3.84-1.45,5.75.34c1.47,1.38,2.86,2.84,4.29,4.27,1,1,2.27,1.77,3.46.93a7.69,7.69,0,0,0,1.91-3.08,4.37,4.37,0,0,0,.05-1.74q0-17.67,0-35.34c0-1.44.11-2.59,2-2.56,2.11,0,2.49.3,2.49,2.48,0,9.18,0,18.35,0,27.53,0,3,1.06,4,4.19,4,3,0,3.93-1,3.94-4q0-11,0-22.06c0-3.25,0-6.51,0-9.76,0-1.47.58-2.13,2.1-2.11,2.14,0,2.52.29,2.52,2.45q0,15.92,0,31.82c0,2.58,1,3.59,3.49,3.67,3.67.1,4.62-.83,4.63-4.54,0-10.35,0-20.69,0-31,0-1.79.64-2.39,2.41-2.39s2.15.9,2.15,2.45q-.06,15.72,0,31.43c0,3.12,1,4.09,4.09,4.09s4-.94,4-4.12q0-12.78,0-25.57c0-2.15.4-2.43,2.51-2.47,1.84,0,2.13,1,2.13,2.49q0,16,0,32.1h0v23.26c0,.78,0,1.55,0,2.33C73.41,168.21,74,168.2,68.93,168.18Z"/><path d="M47,149.22a21.79,21.79,0,0,0-9.54-6.83c-1.45-.51-2.91-.36-3.56,1a4.67,4.67,0,0,0,0,3.21c.22.63,1.24,1.07,2,1.42a17.88,17.88,0,0,1,10.69,14.09c.23,1.47.24,3,.5,4.44a2.67,2.67,0,0,0,3,2.41,2.73,2.73,0,0,0,2.65-2.84c0-.45,0-.91,0-1.36A24.89,24.89,0,0,0,47,149.22Z"/><path d="M159.59,119.06a22,22,0,0,0-9.5-6.89c-1.87-.68-3.41-.07-4.07,1.51s0,2.92,1.72,3.82c.29.15.59.27.88.41A17.31,17.31,0,0,1,158.7,130c.46,1.94.5,4,.8,6a2.9,2.9,0,1,0,5.79-.34c0-.39,0-.78,0-.91A25.27,25.27,0,0,0,159.59,119.06Z"/><path d="M102.41,70.13c.27,1.53.27,3.1.52,4.63a2.77,2.77,0,0,0,3,2.52,2.87,2.87,0,0,0,2.75-3c0-.46,0-.91,0-1.37l.14,0a57.32,57.32,0,0,0-1-5.74c-2.15-7.79-6.8-13.47-14.41-16.48-2.3-.91-4.54.68-4.23,2.88.22,1.55,1.4,2.18,2.69,2.79A17.7,17.7,0,0,1,102.41,70.13Z"/><path d="M97.83,96a34.36,34.36,0,0,0-6.17,0,2.45,2.45,0,0,0-2.15,2.79,2.59,2.59,0,0,0,2.32,2.68,27.68,27.68,0,0,0,2.89.19v-.13a28.23,28.23,0,0,0,2.91,0,2.56,2.56,0,0,0,2.49-2.71A2.46,2.46,0,0,0,97.83,96Z"/></svg>