<svg id="Camada_1" data-name="Camada 1" xmlns="http://www.w3.org/2000/svg" viewBox="0 0 200 200"><title>Doações - Mensal</title><path d="M104.35,72.17c-1.56,1.88-2.89,3.94-4.35,6-1.46-2.06-2.79-4.12-4.35-6C87,61.69,75.94,57.12,62.52,59.89,48.46,62.79,39.79,72,35.81,85.45s-1.1,25.86,6.8,37.26c6.11,8.82,13.75,16.23,21.71,23.29,10.36,9.21,20.9,18.22,31.39,27.29,1.57,1.36,3,2,4.29,1.85,1.34.12,2.72-.49,4.29-1.85,10.49-9.07,21-18.08,31.39-27.29,8-7.06,15.6-14.47,21.71-23.29,7.9-11.4,10.77-23.82,6.8-37.26s-12.65-22.66-26.71-25.56C124.06,57.12,113,61.69,104.35,72.17Zm48.24,9.74c5,9.18,5.14,18.7,1,28.26a54.38,54.38,0,0,1-12.79,17.72c-8.37,8-17,15.72-25.61,23.47-4.57,4.11-10.34,8.53-15.22,12.68-4.89-4.15-10.67-8.57-15.24-12.68-8.61-7.75-17.24-15.47-25.61-23.47a54.38,54.38,0,0,1-12.79-17.72c-4.1-9.56-3.92-19.08,1-28.26,8.75-16.19,29.9-18,41.07-3.41,2.78,3.63,4.72,8,6.68,12.14,1.46,3.08,2.47,4.4,4.68,4.52h.32c2.21-.12,3.22-1.44,4.68-4.52,2-4.18,3.9-8.51,6.68-12.14C122.69,63.91,143.84,65.72,152.59,81.91Z"/><path d="M160.55,51.07c.69.74,1.37,1.5,2,2.26A4.93,4.93,0,1,0,170,46.89c-.73-.85-1.49-1.7-2.26-2.53-1.39-1.5-2.85-3-4.34-4.38a4.93,4.93,0,0,0-6.76,7.17C158,48.41,159.31,49.73,160.55,51.07Z"/><path d="M191.73,95.4c-.27-2-.6-4.07-1-6.08a4.93,4.93,0,1,0-9.66,1.93c.36,1.79.66,3.62.89,5.42a82.1,82.1,0,0,1,.5,16.21,4.94,4.94,0,0,0,4.58,5.26h.34a4.93,4.93,0,0,0,4.91-4.6A92.53,92.53,0,0,0,191.73,95.4Z"/><path d="M171.09,65.21c1,1.78,2,3.62,3,5.47s1.72,3.64,2.47,5.49a4.93,4.93,0,0,0,4.56,3.07,4.86,4.86,0,0,0,1.86-.37,4.93,4.93,0,0,0,2.7-6.43c-.84-2.07-1.77-4.14-2.77-6.15s-2.14-4.13-3.32-6.11a4.93,4.93,0,1,0-8.47,5Z"/><path d="M186.63,122.5a4.92,4.92,0,0,0-5.92,3.67A82.8,82.8,0,1,1,105,24.37l-8.67,6.18a4.93,4.93,0,1,0,5.72,8L122.2,24.24a4.95,4.95,0,0,0,0-8L100.56.9A4.93,4.93,0,0,0,94.88,9l7.67,5.43A92.78,92.78,0,0,0,24.13,160.26a92,92,0,0,0,59.74,38.28A93.45,93.45,0,0,0,100.31,200a92.76,92.76,0,0,0,90-71.57A4.93,4.93,0,0,0,186.63,122.5Z"/></svg>