<svg id="Camada_1" data-name="Camada 1" xmlns="http://www.w3.org/2000/svg" viewBox="0 0 200 200"><title>Elementos - Patona</title><path d="M108.37,12a25.75,25.75,0,0,1,3.86,1.93c15.31,9.3,18,31.9,6.13,51.46-10.91,18-29.77,26.2-44.63,20.23a27.33,27.33,0,0,1-3.86-1.94c-15.31-9.29-18-31.9-6.12-51.46C74.65,14.24,93.51,6,108.37,12Zm1.29-3.2L108.38,12l1.28-3.2h0C93,2.09,72.48,11.19,60.8,30.42,54.66,40.53,52,51.81,53.19,62.19c1.28,10.69,6.56,19.36,14.89,24.42a30.58,30.58,0,0,0,4.36,2.18c16.64,6.69,37.18-2.41,48.86-21.64C134.18,46,131,21.26,114,11a30.07,30.07,0,0,0-4.36-2.18Z"/><path d="M173.91,51.77a26.13,26.13,0,0,1,3.85,1.93c15.32,9.3,18,31.9,6.13,51.46-10.91,18-29.76,26.21-44.63,20.23a26.24,26.24,0,0,1-3.86-1.93c-15.31-9.3-18-31.9-6.12-51.46C140.19,54,159,45.79,173.91,51.77Zm1.28-3.19-1.28,3.19,1.28-3.19h0C158.56,41.89,138,51,126.33,70.21c-6.14,10.12-8.84,21.4-7.6,31.77,1.27,10.69,6.56,19.36,14.89,24.42a30.13,30.13,0,0,0,4.36,2.19c16.63,6.69,37.18-2.41,48.85-21.64,12.88-21.21,9.68-45.89-7.28-56.19a29.09,29.09,0,0,0-4.36-2.18Z"/><path d="M29.89,43.12C39.53,47,47.4,58,48.29,71.88c1.06,16.48-8.83,26.93-20.71,25.8a19.79,19.79,0,0,1-5.5-1.36c-9.58-3.86-18-15-18.6-28.82C2.8,51.23,12,40.49,24.2,41.7a21,21,0,0,1,5.69,1.42Zm1.29-3.19h0a24.21,24.21,0,0,0-6.64-1.65A20.38,20.38,0,0,0,8.31,43.75C2.56,49.19-.38,57.67,0,67.65.63,81.73,9.17,94.84,20.8,99.51a22.92,22.92,0,0,0,6.45,1.6,20.74,20.74,0,0,0,16.63-5.85c5.69-5.52,8.47-13.9,7.85-23.6-.94-14.63-9-27.09-20.55-31.73Z"/><path d="M182.84,136.06a23,23,0,0,1,10.86,8.58c6.69,10.24,1.41,23.38-13.34,30.28a34.32,34.32,0,0,1-27,1.05,23,23,0,0,1-10.9-8.52c-6.48-10-1.77-23.62,13.34-30.28,9.53-4.19,19.37-4.19,27-1.11Zm1.29-3.19h0c-9-3.62-19.83-3.2-29.71,1.15-8.89,3.92-15,10.26-17.32,17.85a20.73,20.73,0,0,0,2.47,17.45,26.29,26.29,0,0,0,12.51,9.84A38,38,0,0,0,181.82,178c9-4.23,15.22-10.75,17.38-18.36a20.36,20.36,0,0,0-2.62-16.93,26.34,26.34,0,0,0-12.45-9.88Z"/><path d="M100.49,101.42a31.07,31.07,0,0,1,5.17,2.64c23.17,14.65,25.18,59.65,13.27,78.48-4.94,7.8-16.43,9.48-28,4.82A44,44,0,0,1,84,183.8a40.11,40.11,0,0,1-10.28-9.5A30.22,30.22,0,0,0,65.88,167a26.51,26.51,0,0,0-4.24-2.19A42.16,42.16,0,0,0,55.89,163a51.27,51.27,0,0,1-7-2.16,36.37,36.37,0,0,1-6-3.06c-13.68-8.65-19.75-22.76-13.83-32.12,11.07-17.5,47.7-33.82,71.42-24.28Zm1.29-3.2-1.29,3.2,1.29-3.2h0c-11.58-4.65-27.23-3.93-43,2C44.5,105.58,32,114.65,26.16,123.86c-7,11-.41,27.19,14.9,36.87a40.15,40.15,0,0,0,6.51,3.35,55.19,55.19,0,0,0,7.48,2.3,38.64,38.64,0,0,1,5.3,1.59,22.69,22.69,0,0,1,3.69,1.9,27.16,27.16,0,0,1,7,6.62,43.81,43.81,0,0,0,11.1,10.22,45.53,45.53,0,0,0,7.47,3.84c13.51,5.43,26.46,2.95,32.23-6.17,6.37-10.08,9.07-26.58,7-43.07-2.27-18.38-10.06-33-21.37-40.16a35.8,35.8,0,0,0-5.72-2.93Z"/></svg>