<svg id="Camada_1" data-name="Camada 1" xmlns="http://www.w3.org/2000/svg" viewBox="0 0 200 200"><title>Elementos - Patinhas</title><path d="M27.08,175.54c-3.35-2.29-3.69-7.43-.76-11.72s7.84-5.84,11.19-3.55,3.69,7.44.76,11.72S30.43,177.83,27.08,175.54Z"/><path d="M41.43,185.34c-3.36-2.29-3.69-7.44-.77-11.72s7.84-5.84,11.19-3.55,3.69,7.43.77,11.71S44.78,187.63,41.43,185.34Z"/><path d="M12.26,171.08c0-3.69,2.25-6,5-5.58s5,3.35,5.08,7.12-2.32,6-5,5.58S12.21,174.79,12.26,171.08Z"/><path d="M42.49,195.38c-1.34-2.35-.11-5.37,3.39-6.69s7.1-.23,8.48,2.14,0,5.31-3.39,6.69S43.81,197.67,42.49,195.38Z"/><path d="M29.06,198.37a9.07,9.07,0,0,1-2.21-2.28A6.48,6.48,0,0,0,23,193.33,9.08,9.08,0,0,1,20.08,192c-3-2.12-4.19-5.39-2.74-7.43,2.92-4.12,12.53-7.57,17.59-4s5,13.8,2,17.91C35.53,200.55,32.05,200.49,29.06,198.37Z"/><path d="M125.3,84.28c-2-3.52-.06-8.29,4.44-10.86s9.61-1.82,11.62,1.7.06,8.3-4.44,10.87S127.31,87.81,125.3,84.28Z"/><path d="M133.91,99.37c-2-3.52-.06-8.3,4.44-10.87S148,86.68,150,90.21s.06,8.3-4.44,10.87S135.92,102.9,133.91,99.37Z"/><path d="M113.92,73.79c1.66-3.3,4.66-4.42,6.94-2.84s3.07,5.22,1.46,8.63-4.71,4.36-6.94,2.83S112.26,77.1,113.92,73.79Z"/><path d="M130.47,108.86c-.18-2.69,2.25-4.87,6-4.53s6.49,2.91,6.69,5.64-2.29,4.79-6,4.54S130.65,111.5,130.47,108.86Z"/><path d="M117.09,105.68a9,9,0,0,1-1-3,7,7,0,0,0-.75-2.31,6.75,6.75,0,0,0-1.54-1.88,8.9,8.9,0,0,1-2-2.46c-1.76-3.21-1.42-6.68.78-7.88,4.43-2.42,14.58-1.32,17.56,4.13s-1.57,14.58-6,17C122,110.47,118.85,108.89,117.09,105.68Z"/><path d="M58.7,122.24c-4-.55-6.62-5-5.92-10.14s4.39-8.73,8.42-8.18,6.62,5,5.92,10.14S62.72,122.79,58.7,122.24Z"/><path d="M75.91,124.59c-4-.55-6.62-5-5.92-10.14s4.4-8.73,8.42-8.19,6.62,5,5.92,10.14S79.93,125.13,75.91,124.59Z"/><path d="M43.45,124.89c-1.61-3.32-.67-6.39,2-7.24s6,.74,7.73,4.1.6,6.39-2,7.23S45.07,128.22,43.45,124.89Z"/><path d="M81.36,133.09c-2.25-1.5-2.51-4.75,0-7.5s6.25-3.38,8.55-1.87,2.41,4.72,0,7.49S83.56,134.55,81.36,133.09Z"/><path d="M70.69,141.77a9.11,9.11,0,0,1-3-1,6.7,6.7,0,0,0-2.29-.82A6.89,6.89,0,0,0,63,140a9.13,9.13,0,0,1-3.17.09c-3.62-.57-6.16-3-5.78-5.43.78-5,7.82-12.37,14-11.42s10.62,10.12,9.85,15.11C77.45,140.83,74.31,142.33,70.69,141.77Z"/><path d="M154.74,18.38c-4-.55-6.62-5-5.92-10.14s4.39-8.73,8.41-8.18,6.63,5,5.93,10.13S158.76,18.92,154.74,18.38Z"/><path d="M172,20.72c-4-.55-6.62-5-5.92-10.14s4.39-8.73,8.42-8.18,6.62,5,5.92,10.14S176,21.27,172,20.72Z"/><path d="M139.49,21c-1.62-3.32-.67-6.38,2-7.23s6,.74,7.73,4.09.6,6.39-2,7.23S141.11,24.36,139.49,21Z"/><path d="M177.4,29.22c-2.25-1.5-2.51-4.75,0-7.5s6.25-3.38,8.55-1.87,2.4,4.73,0,7.5S179.6,30.69,177.4,29.22Z"/><path d="M166.72,37.9a9,9,0,0,1-3-1,6.78,6.78,0,0,0-2.29-.82,6.89,6.89,0,0,0-2.43.09,9.14,9.14,0,0,1-3.17.09c-3.62-.56-6.16-2.94-5.78-5.42.78-5,7.82-12.37,14-11.42s10.62,10.11,9.85,15.1C173.49,37,170.35,38.47,166.72,37.9Z"/></svg>