<svg id="Camada_1" data-name="Camada 1" xmlns="http://www.w3.org/2000/svg" viewBox="0 0 225 200"><title>Elementos - Seta 4</title><path d="M225,4v.1a2.32,2.32,0,0,1-1.9,2.3,4.55,4.55,0,0,1-.53,0c-5.15.06-10.31-.18-15.45.08C163.34,8.69,124.68,24,91.76,52.57,64.82,76,47,105.41,37.4,139.66c-.66,2.34-1.27,4.7-1.88,7.15a2.34,2.34,0,0,0,4.19,1.9h0c1.94-2.75,3.95-5.67,8.19-5.16,3.73.44,7.39,2.87,7.22,6.66-.18,4.21-2.08,8-4.49,11.76q-10.46,16.44-20.47,33.16c-1.84,3.09-3.78,5.09-7.65,4.85a8.46,8.46,0,0,1-7.8-5.72c-2-4.91-3.83-9.87-5.51-14.88C6.26,170.65-.76,152.48.07,145a4.28,4.28,0,0,1,5.51-3.37c3,1.1,7.18,5.24,10.24,7.73A2.37,2.37,0,0,0,19.65,148C37.52,50.39,128.27-10.9,223,1.62A2.34,2.34,0,0,1,225,4Z"/></svg>