<svg id="Camada_1" data-name="Camada 1" xmlns="http://www.w3.org/2000/svg" viewBox="0 0 300 200"><defs><style>.cls-1{font-size:85px;font-family:GochiHand-Regular, Gochi Hand;}</style></defs><title>Elementos - Seta 2</title><path d="M58.2,2.51v0A3.21,3.21,0,0,1,61.38,0c6.11.12,12.15.52,18,2.36,24.53,7.72,47.34,18.82,66.91,35.76,11.88,10.29,21,22.63,25,38.21,5.13,20,.2,37.69-12.75,53.34-9.33,11.27-21.37,19.08-34.32,25.41a382.33,382.33,0,0,1-80.69,29.15,38.82,38.82,0,0,0-9.07,3,27.37,27.37,0,0,1,3,.37c3.35.8,6.72,1.54,10,2.57,1.5.46,2.7,1.66,2.08,3.54-.68,2.08.07,4.8-3.19,5.68a23.05,23.05,0,0,1-10.32,0c-10.24-1.9-20.46-4-30.7-5.92-2.58-.49-4.6-1.61-5.16-4.43a7.16,7.16,0,0,1,2.37-6.63c7.5-6.77,15-13.56,22.54-20.28a11.31,11.31,0,0,1,3.86-2.32A3.67,3.67,0,0,1,34,163.53a9.25,9.25,0,0,1-1,4.35c-1.87,3.23-4.05,6.27-6.25,9.59a4.14,4.14,0,0,0,1.43.07c29.46-9.76,58.75-20,86.72-33.59,11.68-5.67,22.71-12.48,31.83-21.92,6.2-6.42,10.92-13.73,12.89-22.57,2.62-11.8-.31-22.68-6-32.91-6.76-12.1-17.06-20.77-28.48-28.22-15.23-9.95-31.87-17-48.51-24.16-5.61-2.41-11-5.25-16.66-8A3.19,3.19,0,0,1,58.2,2.51Z"/><text class="cls-1" transform="translate(199.77 96.18)">OU</text></svg>