<svg id="Camada_1" data-name="Camada 1" xmlns="http://www.w3.org/2000/svg" viewBox="0 0 200 200"><defs><style>.cls-1{font-size:85px;font-family:GochiHand-Regular, Gochi Hand;}</style></defs><title>Elementos - Seta 1</title><path d="M181.44,147.21c-3.35-4-6.68-8-10-11.93-.86-1-1.89-1.92-2.73-3-1.86-2.32-1.76-4.21.26-6.51a4.65,4.65,0,0,1,6.18-.84,39.72,39.72,0,0,1,6.84,5.6c5.11,5.51,10,11.23,14.93,16.89a14.28,14.28,0,0,1,1.77,2.7c2.54,4.81,1.5,8.43-3.18,11.26a10.19,10.19,0,0,1-1.41.77c-8.11,3.24-16.18,6.57-24.36,9.62a16.86,16.86,0,0,1-6.71.86c-4-.21-5.66-3.77-3.78-7.25,1.59-2.95,4.35-4.27,7.16-5.59,1.07-.51,2.16-1,4-1.77-3.68-1.12-6.55-2.18-9.5-2.87-15.07-3.52-30.16-6.82-45.64-8.05a221,221,0,0,0-55.86,2.53c-14.1,2.46-27.68,6.7-41.13,11.44-3,1.07-6.19,1.8-9.3,2.64a12,12,0,0,1-2.4.31c-2.46.16-4.56-.51-5.78-2.83a6,6,0,0,1,.34-6.5,15.89,15.89,0,0,1,4.57-4.42,80.09,80.09,0,0,1,11.15-5.59c26.84-10.65,54.8-15.29,83.62-15.09a199.44,199.44,0,0,1,53,7.19c9.1,2.56,17.63,6.47,26.18,10.37.43.19.9.33,1.35.49Z"/><text class="cls-1" transform="translate(50.59 90.03)">OU</text></svg>