<svg id="Camada_1" data-name="Camada 1" xmlns="http://www.w3.org/2000/svg" viewBox="0 0 200 200"><title>Filtro - Macho e Femea</title><path d="M143.11,36.88l11.56-11.07a3,3,0,0,0,.36-.68c-1.46.23-2.77.34-4,.64-7.52,1.83-13-4.68-14-9.85A12.84,12.84,0,0,1,149.25.36C161.07.13,172.89,0,184.71,0c4.1,0,8.06.89,10.89,4.37a9.93,9.93,0,0,1,2.1,6.48c0,13,.17,26-.12,39-.14,6-5.61,10.44-11.56,10.37a11.54,11.54,0,0,1-11.53-10.92,82,82,0,0,0-.49-8.78c-4.54,4.27-9.07,8.55-13.69,12.91a59.86,59.86,0,0,1,8.12,44.94,60.53,60.53,0,0,1-17.25,31.67c-18.75,18.44-44.47,21-62.36,14.35,3.9-2.33,8-4.59,11.89-7.17a62.34,62.34,0,0,0,13.62-12.73,4.59,4.59,0,0,1,2.4-1.5,37.31,37.31,0,0,0,28.72-33.82c1.26-23.1-16.9-41.18-40-39.84C88.06,50.36,73,64.8,71.19,82.07a37.37,37.37,0,0,0,6.29,25.68,12.25,12.25,0,0,1,.62,1.13,30.13,30.13,0,0,1-24.38,3.22,2.84,2.84,0,0,1-1.6-1.5c-7.93-19.68-6.61-38.72,4.71-56.69,9.43-15,23.21-24,40.64-27.12,15.79-2.83,30.45.42,43.91,9.1.34.22.67.44,1,.64C142.56,36.63,142.74,36.71,143.11,36.88Z"/><path d="M49.68,179.05c-4.64,0-8.75.06-12.86,0-5.77-.12-10.08-3.24-11.61-8.27A11.63,11.63,0,0,1,36,155.62c3.78-.14,7.57,0,11.35,0h2.19c0-4.44,0-8.67-.07-12.89,0-.47-1-1.17-1.56-1.32a57.94,57.94,0,0,1-24.54-12.6c-11.61-10-18.86-22.62-20.59-37.9C0,66.81,8.78,47.46,28.46,33.53,42.26,23.76,57.9,21,75,24.34c-.79.53-1.27.88-1.78,1.18A71.46,71.46,0,0,0,49.39,47.68a5.93,5.93,0,0,1-2.2,1.86C35.78,55.23,28.46,64.07,26.12,76.75a36.76,36.76,0,1,0,72.94,4.74,35.69,35.69,0,0,0-4.3-15.57c-.46-.87-.94-1.74-1.47-2.72a25.07,25.07,0,0,1,9.91-4,26.34,26.34,0,0,1,13.36.83,3.42,3.42,0,0,1,1.87,1.71,60,60,0,0,1-43.52,80c-.59.13-1.15.31-1.85.5v13.34H77c3.25,0,6.5,0,9.76,0,6.79.09,12,5,12,11.47A11.74,11.74,0,0,1,87,179c-4,.13-8,0-12,0H72.93c0,3,0,5.89,0,8.78a11.35,11.35,0,0,1-4.74,9.8,11.13,11.13,0,0,1-11.68,1.27,10.59,10.59,0,0,1-6.78-9.32C49.48,186.18,49.68,182.73,49.68,179.05Z"/></svg>