<svg id="Camada_1" data-name="Camada 1" xmlns="http://www.w3.org/2000/svg" viewBox="0 0 200 200"><title>Filtro - Tamanho</title><path d="M37.28,155.49V42.9c-5.31,5.24-9.75,9.65-14.23,14-6.63,6.45-14,7.12-19.33,1.8S-1.1,46,5.43,39.42Q22.58,22.16,39.82,5C46.5-1.66,53.37-1.67,60.08,5Q77.33,22.15,94.47,39.41c6.54,6.59,7.11,14,1.68,19.4C91,64,83.27,63.23,76.8,56.89q-6.42-6.28-12.87-12.55c-.1-.09-.4,0-1.09.12V157.37c5.72-5.86,10.22-10.65,14.92-15.24,5.72-5.59,13.45-5.92,18.38-1,5.1,5.08,5,12.61-.75,18.44q-18,18.31-36.27,36.3c-5.59,5.51-12.79,5.52-18.36,0Q22.25,177.64,4.05,159.07c-5.38-5.51-5.31-12.88-.33-17.84s12.27-4.92,17.84.45c4.93,4.75,9.42,9.95,14.1,14.94Z"/><path d="M162.8,112.44c-9.46,0-18.92.08-28.38,0-5.13-.07-8.43-3.88-9.1-10-.9-8.31,2.58-14.72,8.55-14.78,19.07-.19,38.14-.16,57.21,0,5.33,0,9,5.65,8.92,12.66s-3.81,12.08-9.26,12.17C181.42,112.55,172.11,112.44,162.8,112.44Z"/><path d="M162.74,12.56c9.16,0,18.33,0,27.49,0,5.8,0,9.59,4.76,9.76,12s-3.59,12.69-9.3,12.74q-28.16.22-56.32,0c-6-.05-9.25-4.86-9.15-12.7.11-7.57,3.61-12,9.57-12.08C144.11,12.52,153.42,12.56,162.74,12.56Z"/><path d="M162.37,187.38c-9.32,0-18.63.05-27.94,0-5.6,0-9.07-4.64-9.2-12-.15-7.89,3.07-12.76,9.06-12.81q28.16-.22,56.32,0c5.74,0,9.5,5.43,9.38,12.63s-3.93,12.12-9.68,12.15C181,187.42,171.68,187.38,162.37,187.38Z"/></svg>