<svg id="Camada_1" data-name="Camada 1" xmlns="http://www.w3.org/2000/svg" viewBox="0 0 231.57 200"><title>Filtro - Tamanho P</title><path d="M37.28,155.49V42.9c-5.31,5.24-9.75,9.65-14.23,14-6.63,6.45-14,7.12-19.33,1.8S-1.1,46,5.43,39.42Q22.58,22.16,39.82,5C46.5-1.66,53.37-1.67,60.08,5Q77.33,22.15,94.47,39.41c6.54,6.59,7.11,14,1.68,19.4C91,64,83.27,63.23,76.8,56.89q-6.42-6.28-12.87-12.55c-.1-.09-.4,0-1.09.12V157.37c5.72-5.86,10.22-10.65,14.92-15.24,5.72-5.59,13.45-5.92,18.38-1,5.1,5.08,5,12.61-.75,18.44q-18,18.31-36.27,36.3c-5.59,5.51-12.79,5.52-18.36,0Q22.25,177.64,4.05,159.07c-5.38-5.51-5.31-12.88-.33-17.84s12.27-4.92,17.84.45c4.93,4.75,9.42,9.95,14.1,14.94Z"/><path d="M226,94.12q-5.58,10.29-17.43,16.59T178.65,117H154.08v56.28h-29.4V26.71h54q17,0,29,5.88t18,16.17a45.5,45.5,0,0,1,6,23.31A45.75,45.75,0,0,1,226,94.12Zm-30.56-6.41q5.88-5.55,5.88-15.64,0-21.42-23.94-21.42H154.08V93.28h23.31Q189.57,93.28,195.45,87.71Z"/></svg>