<svg id="Camada_1" data-name="Camada 1" xmlns="http://www.w3.org/2000/svg" viewBox="0 0 200 200"><title>Filtro - Com e Sem Adotantes</title><path d="M110,166.8c0-8.39.07-16.79,0-25.18a18.27,18.27,0,0,1,5.41-13.83c9.55-9.55,19-19.19,28.62-28.67,4.82-4.76,10.76-4.89,14.9-.68s3.7,10-1.08,14.87c-4.17,4.26-8.44,8.42-12.62,12.68-2.69,2.74-2.94,5.46-.83,7.67s5.15,2.18,8-.62c8.64-8.56,17.28-17.12,25.74-25.86A8.28,8.28,0,0,0,180,102c.24-10.58.12-21.17.31-31.75.11-6.28,4.49-10.05,10.72-9.59a9.37,9.37,0,0,1,8.84,9.47q.27,23.72,0,47.44c0,4.43-2.38,8-5.56,11.12-13.84,13.51-27.57,27.13-41.42,40.62a8.52,8.52,0,0,0-2.77,6.76c.09,5.71,0,11.43-.15,17.15-.12,5-1.37,6.4-6.27,6.46q-13.68.17-27.37,0c-4.75-.07-6-1.47-6.08-6.21-.07-8.88,0-17.76,0-26.64Z"/><path d="M89.78,166.69c0,9,0,18,0,27,0,4.51-1.63,6.18-6.18,6.23q-13.7.12-27.39,0c-4.52,0-6-1.65-6.1-6.31-.09-5.72-.11-11.44,0-17.16a9.39,9.39,0,0,0-3.19-7.39c-13.87-13.49-27.6-27.13-41.45-40.64a17.11,17.11,0,0,1-5.42-13C.12,101,0,86.67,0,72.31c0-7.61,3.48-11.7,9.88-11.64s9.73,4.19,9.73,11.84c0,9.74-.14,19.48.12,29.22a9.83,9.83,0,0,0,2.48,6c7.66,8,15.57,15.76,23.43,23.57A18.48,18.48,0,0,0,49,134.11c2.21,1.33,4.6,2,6.57-.35s1.83-4.93-.41-7.19c-3.95-4-7.92-7.91-11.87-11.89a34.52,34.52,0,0,1-3-3.21c-3.31-4.33-2.88-9.6,1-13.16a9.42,9.42,0,0,1,13.45.13c10.38,10.26,20.67,20.64,31,30.95,3,3,4,6.6,4,10.64v26.66Z"/><path d="M121.27,90c-3.09-1.09-6.28-2-9.24-3.32-7-3.23-14-3.44-20.88,0-4.29,2.17-8.59,3.16-13.37,2.11C71.3,87.39,68,81.92,70.9,76c4.68-9.48,10.46-18.39,18.35-25.54,7.13-6.45,19.86-5.85,26.14,1.48a186.87,186.87,0,0,1,15.47,21.17C136.53,82,132.11,89.3,121.27,90Z"/><path d="M127.19,20.6c-.21,4.56-1.33,10.16-5.76,14.52-4,4-9.16,4-13.26.09-7.84-7.4-8-24.56-.3-32.08C112.07-1,117.12-1,121.43,3,125.11,6.47,127.2,12.34,127.19,20.6Z"/><path d="M97.83,18.65c-.39,5.78-1.4,10.71-4.7,14.9-4.3,5.48-10.94,5.73-15.56.56-6.7-7.5-6.54-23.28.3-30.6,4.38-4.7,10.12-4.67,14.55,0C96.61,8,97.28,13.61,97.83,18.65Z"/><path d="M122.27,45.87c.3-6.11,3.43-12,9.65-15.94s12-1.16,13,6S140.94,52.67,134.54,56C127.79,59.56,122.3,55.57,122.27,45.87Z"/><path d="M55,38.81c0-4.65.85-8.1,4.5-9.9s7-.49,9.86,1.87c6.14,5.08,9.26,11.54,8,19.63-.94,5.79-5.77,8.4-11.07,5.8C58.72,52.52,55.61,45.91,55,38.81Z"/></svg>