<svg id="Camada_1" data-name="Camada 1" xmlns="http://www.w3.org/2000/svg" viewBox="0 0 656.47 200"><title>Filtro - Macho_1</title><path d="M122,48a8.29,8.29,0,0,0-1.71-5.35C118,39.73,114.76,39,111.44,39c-9.57,0-19.14.11-28.71.3a10.56,10.56,0,0,0-10,12.85c.85,4.27,5.26,9.64,11.36,8.13,1-.25,2.09-.34,3.27-.53a2.64,2.64,0,0,1-.29.56l-8.53,8.34a49,49,0,0,0-28.75-9.32C22.31,59.33,0,82.09,0,110.17S22.31,161,49.84,161s49.84-22.76,49.84-50.83A51.26,51.26,0,0,0,91.9,82.92l10.87-10.45a71,71,0,0,1,.4,7.25,9.42,9.42,0,0,0,9.33,9c4.82.06,9.25-3.64,9.36-8.57C122.1,69.44,122,58.7,122,48ZM49.84,142.7c-17.62,0-31.9-14.57-31.9-32.53s14.28-32.54,31.9-32.54,31.9,14.57,31.9,32.54S67.46,142.7,49.84,142.7Z"/><path d="M273.78,50V152.22H253.29V85.76l-27.38,66.46H210.39L182.87,85.76v66.46h-20.5V50h23.28l32.5,76,32.5-76Z"/><path d="M293.62,89.56a36,36,0,0,1,13.32-14.64,35.51,35.51,0,0,1,18.81-5.12,33.08,33.08,0,0,1,15.89,3.66,32.25,32.25,0,0,1,10.9,9.22V71.12h20.65v81.1H352.54V140.37a30.54,30.54,0,0,1-10.9,9.44,33.37,33.37,0,0,1-16,3.73,34.49,34.49,0,0,1-18.67-5.27,36.83,36.83,0,0,1-13.32-14.86,47.68,47.68,0,0,1-4.91-22A47,47,0,0,1,293.62,89.56Zm56,9.3a20.76,20.76,0,0,0-7.91-8.2A21.16,21.16,0,0,0,331,87.81a20.58,20.58,0,0,0-18.37,10.9,25.51,25.51,0,0,0-3,12.67,26.3,26.3,0,0,0,3,12.81,21.53,21.53,0,0,0,7.91,8.42A20,20,0,0,0,331,135.53a21.16,21.16,0,0,0,10.69-2.85,20.63,20.63,0,0,0,7.91-8.2,26.3,26.3,0,0,0,2.92-12.81A26.33,26.33,0,0,0,349.62,98.86Z"/><path d="M393.1,89.64A36.47,36.47,0,0,1,407.3,75a41,41,0,0,1,20.79-5.2q15.07,0,25,7.54T466.3,98.5H444.19a16.2,16.2,0,0,0-5.93-8.28,17.21,17.21,0,0,0-10.32-3q-8.79,0-13.91,6.37t-5.12,18.08q0,11.56,5.12,17.94T427.94,136q12.44,0,16.25-11.12H466.3A37.42,37.42,0,0,1,453,145.78q-9.95,7.77-24.88,7.76a41,41,0,0,1-20.79-5.2,36.47,36.47,0,0,1-14.2-14.64q-5.13-9.43-5.13-22T393.1,89.64Z"/><path d="M543.45,74a27.84,27.84,0,0,1,11.2,11.86q4,7.83,4,18.81v47.58H538.18V107.43q0-9.68-4.83-14.86t-13.18-5.2q-8.49,0-13.4,5.2t-4.9,14.86v44.79h-20.5V43.89h20.5V81.22A26.79,26.79,0,0,1,512.41,73a34.91,34.91,0,0,1,14.64-3A33,33,0,0,1,543.45,74Z"/><path d="M593.08,148.34a37.32,37.32,0,0,1-14.72-14.71,44.09,44.09,0,0,1-5.34-22,43.18,43.18,0,0,1,5.49-22,38.11,38.11,0,0,1,15-14.71A45.92,45.92,0,0,1,636,75a38.17,38.17,0,0,1,15,14.71,43.18,43.18,0,0,1,5.49,22,42.23,42.23,0,0,1-5.64,22,39,39,0,0,1-15.22,14.71,44.26,44.26,0,0,1-21.45,5.2A42.64,42.64,0,0,1,593.08,148.34ZM624.63,133a19.75,19.75,0,0,0,7.83-8.12,27.4,27.4,0,0,0,2.93-13.18q0-11.57-6.08-17.79a20,20,0,0,0-14.86-6.22,19.51,19.51,0,0,0-14.71,6.22q-5.94,6.23-5.93,17.79t5.78,17.79a19,19,0,0,0,14.57,6.22A21.31,21.31,0,0,0,624.63,133Z"/></svg>