<svg id="Camada_1" data-name="Camada 1" xmlns="http://www.w3.org/2000/svg" viewBox="0 0 240 200"><title>Filtro - Disponivel</title><path d="M235.88,134.26,130.11,4.2a7.61,7.61,0,0,0-.9-.88,14.41,14.41,0,0,0-18.39,0,7.44,7.44,0,0,0-.93.89L4.12,134.26c-3.3,4.05-3.38,7.79-.22,10.5,3.32,2.84,6.93,2.09,10.45-2.2s7-8.56,10.47-12.84L33.66,119c1.37,7.72,2.57,14.45,3.76,21.18,3.35,18.92,6.73,37.83,10,56.76A4.83,4.83,0,0,0,48.83,200h29a9.38,9.38,0,0,0,0-1.52c-2.55-17.38-5-34.76-7.7-52.11-2.49-16.15,7.22-28.56,23.41-28.87,8.82-.17,44.14-.17,53,0,16.19.31,25.9,12.72,23.41,28.87-2.68,17.35-5.15,34.73-7.7,52.11a9.38,9.38,0,0,0,0,1.52h29a4.83,4.83,0,0,0,1.42-3.11c3.26-18.93,6.64-37.84,10-56.76,1.19-6.73,2.39-13.46,3.76-21.18l8.84,10.77q5.23,6.42,10.47,12.84c3.52,4.29,7.13,5,10.45,2.2C239.26,142.05,239.18,138.31,235.88,134.26Z"/></svg>