<svg id="Camada_1" data-name="Camada 1" xmlns="http://www.w3.org/2000/svg" viewBox="0 0 200 200"><title>Filtro - Macho</title><path d="M175,36a10.18,10.18,0,0,0-2.1-6.58C170,25.9,166.09,25,162,25q-17.65,0-35.3.37c-8.1.15-13.83,7.7-12.23,15.79,1,5.26,6.47,11.86,14,10,1.26-.31,2.57-.42,4-.66a2.69,2.69,0,0,1-.36.69c-3.47,3.41-7,6.81-10.49,10.26A60.17,60.17,0,0,0,86.28,50C52.43,50,25,78,25,112.5S52.43,175,86.28,175s61.27-28,61.27-62.5A63,63,0,0,0,138,79l13.36-12.85a84.5,84.5,0,0,1,.49,8.91,11.59,11.59,0,0,0,11.48,11.09c5.92.08,11.37-4.47,11.5-10.53C175.12,62.43,175,49.22,175,36ZM86.28,152.5c-21.66,0-39.22-17.91-39.22-40s17.56-40,39.22-40,39.21,17.91,39.21,40S107.94,152.5,86.28,152.5Z"/></svg>