<svg id="Camada_1" data-name="Camada 1" xmlns="http://www.w3.org/2000/svg" viewBox="0 0 200 200"><title>Lixeira</title><path d="M126.19,0c.79.26,1.59.51,2.38.79a13.33,13.33,0,0,1,9,12.3c.08,4.36,0,8.71,0,13.38h31.11c6.43,0,10.06,3.59,10.1,10,0,5,0,9.9,0,14.84,0,6.51-3.65,10.08-10.22,10.11h-4.08c-.05,1-.13,1.91-.13,2.79q0,60.62,0,121.25a21.12,21.12,0,0,1-.43,4.84,12.51,12.51,0,0,1-12.2,9.67Q100,200,48.36,200a12.6,12.6,0,0,1-12.54-11.59c-.11-1.1-.11-2.21-.11-3.31q0-60.33,0-120.67v-3c-1.72,0-3.26,0-4.8,0-5.83-.1-9.53-3.71-9.62-9.52q-.12-8,0-16c.09-5.79,3.85-9.4,9.68-9.42,9.7,0,19.4,0,29.1,0h2.39V20.9c0-2.54,0-5.07,0-7.61A13.48,13.48,0,0,1,72.56.43C73,.31,73.41.14,73.84,0Zm27.14,61.42h-2.49q-50.86,0-101.73-.05c-2,0-2.46.57-2.46,2.5q.09,60.83,0,121.63c0,3.28.27,3.54,3.57,3.54h99.39c3.45,0,3.68-.22,3.68-3.61v-124ZM32.35,50.3H167.61V37.55H32.35Zm41.08-24h53.18V14.86c0-3.19-.71-3.91-3.87-3.91H77.26a10.42,10.42,0,0,0-1.37,0,2.47,2.47,0,0,0-2.44,2.55C73.4,17.74,73.43,22,73.43,26.32Z"/><path d="M62.46,126.15c0-13.79,0-27.58,0-41.37,0-4.22,3.65-6.89,7.36-5.47a5.34,5.34,0,0,1,3.51,4.54,12.67,12.67,0,0,1,.07,2v80.79a15.82,15.82,0,0,1-.06,1.95,5.42,5.42,0,0,1-5.75,4.93,5.3,5.3,0,0,1-5.12-5.36c-.07-4.16,0-8.33,0-12.49Z"/><path d="M137.56,126.15q0,20.29,0,40.59a11.67,11.67,0,0,1-.19,2.71,5.37,5.37,0,0,1-5.72,4,5.43,5.43,0,0,1-5-4.72,16.59,16.59,0,0,1-.08-2.34V86c0-.59,0-1.17,0-1.76a5.46,5.46,0,0,1,10.92.14c0,.65,0,1.3,0,2Q137.57,106.23,137.56,126.15Z"/><path d="M94.54,126.15c0-13.73,0-27.45,0-41.18,0-4.36,3.62-7.11,7.39-5.66a5.36,5.36,0,0,1,3.51,4.54,9.09,9.09,0,0,1,0,1.17q0,41.18,0,82.36c0,3.32-1.82,5.67-4.61,6.05-3.51.49-6.3-2-6.32-5.71,0-7.74,0-15.48,0-23.23Z"/></svg>