<svg id="Camada_1" data-name="Camada 1" xmlns="http://www.w3.org/2000/svg" viewBox="0 0 200 200"><title>Relatorio - Icon</title><path d="M175,87.78V58.31c0-.87,0-1.74,0-2.61a7,7,0,0,0-2.2-5.29Q148.56,26.34,124.33,2.23A7.29,7.29,0,0,0,119,0H43.15a22.26,22.26,0,0,0-2.87.13A17.35,17.35,0,0,0,25,17.49V180.05a18.65,18.65,0,0,0,2.16,9C31.05,196.18,37.35,200,45.38,200c10.3,0,20.69,0,31,0h78.29a19.84,19.84,0,0,0,14.05-5.49A19.64,19.64,0,0,0,175,179.65Q175,133.72,175,87.78ZM126.46,64.14c.8.08,1.61.13,2.4.13h32.72V179.8a6.4,6.4,0,0,1-5.68,6.74,7.88,7.88,0,0,1-1.38.07H45.5A6.6,6.6,0,0,1,39,182.76a6.06,6.06,0,0,1-.54-2.64V154.07q0-68.14,0-136.29a4.07,4.07,0,0,1,1.38-3.51,4,4,0,0,1,2.65-.9h67.9v33A18.08,18.08,0,0,0,126.46,64.14ZM151.12,50.9h-22.3a4.82,4.82,0,0,1-3.75-1.37,4.37,4.37,0,0,1-1.28-3.19q0-12.41,0-24.79V21.1l30,29.8Z"/><path d="M133.35,118.74q-21.27,0-42.55,0H80.51v13.33H136.6V127c0-1.65,0-3.29,0-4.93a3,3,0,0,0-3.26-3.31Z"/><path d="M136.59,143.07c0-.21,0-.42,0-.62l-.15-2.44H80.51V153.2l2.53.12.47,0h50a2.93,2.93,0,0,0,3.1-3.16c0-1.61,0-3.22,0-4.84Z"/><rect x="80.52" y="97.61" width="56.04" height="13.24"/><path d="M66,140a6.77,6.77,0,0,0-4.8,1.91,6.52,6.52,0,0,0-2,4.69,6.74,6.74,0,0,0,6.61,6.77h.13A6.69,6.69,0,0,0,66,140Z"/><path d="M65.85,118.76h0a6.69,6.69,0,0,0,0,13.37h0a6.73,6.73,0,0,0,6.71-6.67h0a6.57,6.57,0,0,0-2-4.73A6.68,6.68,0,0,0,65.85,118.76Z"/><path d="M65.89,110.9h0a6.62,6.62,0,0,0,4.71-2,6.55,6.55,0,0,0,1.94-4.7,6.65,6.65,0,0,0-2-4.74,6.86,6.86,0,0,0-4.76-1.91,6.64,6.64,0,0,0-6.66,6.71,6.54,6.54,0,0,0,2,4.71A6.77,6.77,0,0,0,65.89,110.9Z"/></svg>