<svg id="Camada_1" data-name="Camada 1" xmlns="http://www.w3.org/2000/svg" viewBox="0 0 200 200"><title>Relatorio - Aberto</title><path d="M192.48,139.32q0-13.89,0-27.79,0-17.19,0-34.39a4.44,4.44,0,0,0-1.58-3.55L177.28,61.81l-9.88-8.54c-.44-.38-.9-.73-1.36-1.08s-.66-.49-1-.75c-.5-.42-1-.84-1.46-1.27l-1.11-1c-1.26-1.08-1.34-1.32-1.26-1.8a14.76,14.76,0,0,0,.07-3l0-.61a12.7,12.7,0,0,0-10.94-12.16,39,39,0,0,0-4.91-.19c-1,0-2,0-2.93,0a1.26,1.26,0,0,1-.45-.14c-5.27-4.51-10.5-9-15.74-13.59l-7.48-6.47-8.1-7a15.92,15.92,0,0,0-21.37-.1c-3.51,3-7,6-10.5,9.08l-5.13,4.46-2.49,2.15c-4.47,3.87-8.94,7.74-13.41,11.56a.52.52,0,0,1-.16.06c-1.17,0-2.32,0-3.54,0-.9,0-1.8,0-2.7,0A12.74,12.74,0,0,0,38.72,44.25c0,.47,0,.94,0,1.41,0,.82,0,1.59,0,2.28-.78.71-1.58,1.4-2.43,2.12-.64.55-1.29,1.09-1.92,1.65s-1.22,1.12-1.83,1.69-1.3,1.22-2,1.81c-1.48,1.29-3,2.55-4.46,3.82l-2.93,2.49-4.4,3.79q-4.69,4.05-9.42,8.07a4.9,4.9,0,0,0-1.83,4c.09,21.51.16,43.17.2,64.39,0,1.69,0,3.43-.08,5.11s-.09,3.24-.09,4.86q0,17.75,0,35.51a12.15,12.15,0,0,0,1.88,6.57A12.63,12.63,0,0,0,20.73,200H179.36a12.74,12.74,0,0,0,13.12-13.14q0-5.13,0-10.25l-.06-12q-.06-9.34-.09-18.69c0-1.1,0-2.21.07-3.31S192.48,140.41,192.48,139.32ZM75.77,31.35q10.38-9,20.77-18c2.42-2.09,4.49-2.08,6.94,0L119,26.81l5.24,4.54ZM119.85,129c-1.43-1.25-2.84-2.48-4.24-3.74a23,23,0,0,0-10.87-5.55,25.94,25.94,0,0,0-5-.5,22.56,22.56,0,0,0-14.58,5.38c-1.8,1.47-3.62,3-5.44,4.7q-8.93-8.32-17.91-16.59l-6.67-6.16c-1.56-1.43-3.18-2.92-4.73-4.4q0-28.63,0-57.28c0-1.39.25-1.63,1.63-1.63H148c1.38,0,1.63.24,1.63,1.62V62.18q0,16,0,32.06c0,1.48,0,3,.09,4.38,0,.9.05,1.8.07,2.69,0,.64-.06.71-.15.79q-11.76,10.83-23.51,21.69l-5.91,5.46Zm-71,42.72,33.42-29c1.9-1.65,3.8-3.32,5.69-5L92.21,134a11.34,11.34,0,0,1,15.55,0q17.08,14.81,34.15,29.64l9.92,8.62L167.68,186l2.6,2.25H29.73Zm22-34.71L19.25,181.8V89.28Zm-47.68-60L38.66,63.51V91.24ZM129.06,137l51.68-47.74v92.54Zm32.3-45.81V63.54l15.45,13.39Z"/><path d="M58.43,57.53c4.07,0,8.15,0,12.23,0h0c4.94,0,9.87,0,14.81,0,3.53,0,7.07-.07,10.6-.08,3,0,6,.08,9,.07,3.78,0,7.56-.07,11.34-.07,8.44,0,16.88.07,25.33.06a3.37,3.37,0,0,0,3.28-3,3.41,3.41,0,0,0-2.47-3.63,6.91,6.91,0,0,0-1.82-.18H82.42c-7.93,0-15.87,0-23.81,0a4.58,4.58,0,0,0-2.3.77,3.2,3.2,0,0,0-1.15,3.68A3.34,3.34,0,0,0,58.43,57.53Z"/><path d="M141.44,106a3.55,3.55,0,0,0,3.37-2.41,3.42,3.42,0,0,0-1.22-3.75,6.2,6.2,0,0,0-2.78-.68c-3.41,0-6.83,0-10.25,0-4,0-8-.09-12.08-.09q-19.82,0-39.63,0c-3.57,0-7.13.09-10.7.09-3.16,0-6.32-.07-9.48-.09a4.07,4.07,0,0,0-3.48,2.3c-.82,2.38,1,4.59,3.76,4.58,4.1,0,8.21-.06,12.31-.07H92.5v0H128C132.5,106,137,106,141.44,106Z"/><path d="M140.7,66.82H59.28a9.43,9.43,0,0,0-1.51.09,3.39,3.39,0,0,0-2.61,4.36c.53,1.61,1.72,2.4,3.69,2.4H140.6a10.87,10.87,0,0,0,1.4,0,3.4,3.4,0,0,0,2.82-4.4C144.28,67.56,143,66.82,140.7,66.82Z"/><path d="M59.16,89.85h81.65a9.29,9.29,0,0,0,1.29-.06,3.37,3.37,0,0,0,2.75-4.26c-.49-1.71-1.7-2.52-3.81-2.52H59.5A12.69,12.69,0,0,0,58,83a3.22,3.22,0,0,0-2.85,2.47,3.27,3.27,0,0,0,1,3.46A4,4,0,0,0,59.16,89.85Z"/></svg>