<svg id="Camada_1" data-name="Camada 1" xmlns="http://www.w3.org/2000/svg" viewBox="0 0 199.82 200"><title>Rodape - Instagram</title><path d="M198.8,52.93c-.77-8.87-2.93-17.4-7.38-25.17-8.18-14.28-20.74-22.41-36.69-25.6C146,.42,137.2.26,128.39.17,113,0,97.54-.08,82.12.1,71.53.23,60.92.58,50.36,1.39A53.1,53.1,0,0,0,25.15,10C11.81,18.65,4.51,31.28,1.82,46.77.34,55.31.21,63.94.13,72.56,0,86.69,0,100.81,0,114.93c0,11.52-.06,23,1.27,34.51a58.57,58.57,0,0,0,7.2,22.85c7.66,13.24,19.21,21.25,34,24.84,8.54,2.08,17.27,2.33,26,2.48,10.51.18,21,0,31.53,0V200c12-.18,24-.33,36-.55,7.63-.14,15.23-.63,22.62-2.66,20.81-5.72,33.61-19.18,38.65-40.11,2-8.49,2.21-17.19,2.36-25.85.22-12.53.22-25.06.21-37.59C199.81,79.79,200,66.34,198.8,52.93Zm-17.15,75.61c-.1,8.22-.12,16.48-2.07,24.57-3.51,14.57-12.67,23.37-27.23,26.67-7,1.6-14.24,1.72-21.41,1.82-10.41.14-20.82,0-31.23,0V182c-12.68-.21-25.35-.37-38-.65a64.06,64.06,0,0,1-17.56-2.44c-13.24-4.07-21.06-13.1-24.08-26.48a86.13,86.13,0,0,1-1.73-18.53c-.13-21.16-.24-42.32-.15-63.47,0-7.36.21-14.75,1.65-22,1.9-9.63,6.46-17.57,14.72-23.12a38.91,38.91,0,0,1,17.6-6.05C63.56,17.92,75,18,86.51,18c14,0,28-.05,41.94.14,7.84.11,15.72.14,23.45,1.8,16,3.42,26,14.11,28.4,30.28,1.44,9.66,1.42,19.4,1.45,29.12C181.8,95.76,181.84,112.15,181.65,128.54Z"/><path d="M100.47,48.63a51.29,51.29,0,1,0-.58,102.58c27.71.21,51-22.73,51.34-50.28C151.64,72.12,128.5,48.84,100.47,48.63Zm32.7,51.45c-.08,18.68-15,33.29-34,33.11-18.2-.18-33-15.53-32.6-34.08a33.29,33.29,0,0,1,66.57,1Z"/><path d="M153.43,34.58a12,12,0,1,0,11.79,12.1A12.1,12.1,0,0,0,153.43,34.58Z"/></svg>