<svg id="Camada_1" data-name="Camada 1" xmlns="http://www.w3.org/2000/svg" viewBox="0 0 232.01 200"><title>Rodape - LinkTree</title><path d="M229.31,120.06q-16.53-29.91-33.09-59.78Q182.51,35.52,168.8,10.74C164.88,3.65,158.54-.2,151,0S137.45,4.19,133.85,11.3c-6.6,13.05-12.4,24.49-18,35.58-6.24-12.47-12-24-17.39-35C93.72,2.36,86.4.17,81.09,0S68.21,1.62,63,11Q49.29,35.85,35.5,60.72,19.11,90.36,2.7,120a19.73,19.73,0,0,0-.18,19.61,19.7,19.7,0,0,0,17.12,9.49c4.31,0,8.67,0,12.89,0,1.92,0,3.8,0,5.75,0h5.31c2.47,0,5,0,7.52,0,0,9,0,18,0,26.75v3.48c0,12,8,20.29,20,20.53q4.84.09,9.57.09t9.36-.1c11.91-.25,19.92-8.49,19.94-20.51,0-4,0-7.95,0-11.92,0-8.06,0-16.4.06-24.58,0-3.86-1.16-6.94-3.55-9.15a11.42,11.42,0,0,0-9.16-2.81c-.56,0-1.37,0-2.22,0a34.57,34.57,0,0,0-4.6.08c-.65.06-.89-.16-1-.38a2.24,2.24,0,0,1,.23-2.26c6.65-12.12,13.22-24.5,19.58-36.48l6.57-12.38c2.41,4.44,4.81,8.88,7.15,13.24l4.49,8.31,4.79,8.83c3.43,6.29,7,12.8,10.34,19.22.35.65.39,1.15.27,1.34s-.63.46-1.44.48l-1.18,0c-2.07,0-4,.09-5.8,0a11.36,11.36,0,0,0-9,2.88,11.6,11.6,0,0,0-3.45,8.95c.07,8.57.06,17.31,0,25.75V179c0,12.81,8,20.83,20.77,20.92l7.23,0h9.53c13.33,0,21.29-8,21.29-21.26v-8c0-7,0-14.29,0-21.5,2.49,0,5,0,7.4,0l5.35,0h5.79c4.21,0,8.56,0,12.86,0,7.36-.07,13.81-3.62,17.24-9.49S232.84,126.46,229.31,120.06ZM93.17,83.36c-6.33,11.93-12.88,24.26-19.46,36.27a20.3,20.3,0,0,0,.54,21,19.2,19.2,0,0,0,17.51,8.5c0,6.16,0,12.32,0,18.34v11.88a4.34,4.34,0,0,1-.33,2,4,4,0,0,1-1.82.35c-5.82.12-11.94.12-18.18,0a4.08,4.08,0,0,1-1.77-.32,4.19,4.19,0,0,1-.36-2.06v-3.49c0-10.82,0-22,0-33a11.12,11.12,0,0,0-11.76-12h-.4c-4.46.1-9.06.08-13.5.06H32.49c-4.16,0-8.47,0-12.67,0-1,0-1.49-.29-1.59-.46s-.09-.79.39-1.65Q35,99.16,51.41,69.53,65.2,44.65,79,19.75a4.77,4.77,0,0,1,1.12-1.53,1.26,1.26,0,0,1,.46,0,2.11,2.11,0,0,1,.44,0,4.79,4.79,0,0,1,1.12,1.68c6.63,13.47,13.73,27.73,21.66,43.55C100.2,70.11,96.63,76.84,93.17,83.36ZM213.8,130.45c-.09.15-.62.47-1.7.48-4.2,0-8.5,0-12.65,0h-5.83l-5.44,0c-4.42,0-9,0-13.43-.07A11.65,11.65,0,0,0,166,134a11.93,11.93,0,0,0-3.3,8.91c.07,9.21.06,18.6,0,27.68v8a7.89,7.89,0,0,1-.35,2.72,8,8,0,0,1-2.8.37h-1.81c-4.85,0-9.87,0-14.79,0a5.82,5.82,0,0,1-2.36-.36,5.85,5.85,0,0,1-.35-2.39q0-5.24,0-10.47c0-6.35,0-12.86,0-19.38h.41l1.13,0a19.09,19.09,0,0,0,16.9-28.47c-3.43-6.53-7-13.1-10.46-19.44l-4.77-8.79L139,84.12c-3.66-6.79-7.43-13.78-11.2-20.68,7-13.77,14.06-27.6,22.32-43.93a4.21,4.21,0,0,1,.85-1.27,2,2,0,0,1,.45-.06,3.4,3.4,0,0,1,.53,0,3.85,3.85,0,0,1,1,1.32q13.7,24.78,27.43,49.55Q196.87,99,213.39,128.85C213.88,129.74,213.88,130.32,213.8,130.45Z"/></svg>