<svg id="Camada_1" data-name="Camada 1" xmlns="http://www.w3.org/2000/svg" viewBox="0 0 850 1050"><defs><style>.cls-1{fill:#c3c3c3;}</style></defs><title>Forma - Rifa</title><path class="cls-1" d="M850,0a244.94,244.94,0,0,0-25.27,7.7c-50.35,18.25-93.37,48.58-134,82.88-36.71,31-75.8,58.56-118.53,80.64-62.67,32.38-129.73,49.37-199.39,57.32-59.26,6.76-118.74,11.69-177.41,23.25-55.89,11-104.7,34.45-143,78C21.94,364.45,4.23,404.75.69,450.69-4.56,518.82,20.61,576.43,65,626.25c32.1,36.06,71.38,62.86,114.26,84.43a521,521,0,0,1,134.54,97.66c33.79,33.75,63.08,71.39,90.17,110.74,28.52,41.42,61.59,78.26,105.41,103.82,48.59,28.33,99.81,35.29,153.57,16.88,39.78-13.62,72.73-37.48,101.24-68.22a327.15,327.15,0,0,0,65.29-103.28A479,479,0,0,0,850,801.65Z"/></svg>