<svg id="Camada_1" data-name="Camada 1" xmlns="http://www.w3.org/2000/svg" viewBox="0 0 850 950"><defs><style>.cls-1{fill:#c3c3c3;}</style></defs><title>Forma - Bazar</title><path class="cls-1" d="M809.43,348.18c-33.83-57.53-80.25-103.93-130.6-146.62-45.4-38.5-94.47-72-145.83-102.14C468.21,61.35,400.21,31.28,326.67,14.61,268.07,1.32,208.87-3.77,149,3,96.74,8.85,46.78,22.13,0,44.88V892c36.8,38,82.67,56.39,148.14,58,24.13,1.37,52.48-15.64,76.67-41,16.84-17.63,31.31-37.32,46-56.78,19.17-25.4,40.14-49.24,63.86-70.44,42.49-38,93.05-61.22,146.68-78.49C530,687.54,580,677,629.75,665.71c41.89-9.48,83.62-19.6,123.13-37,27.58-12.12,52.71-28,70.34-53,25.93-36.73,30-78.46,24.81-121.68C843.43,415.85,828.81,381.12,809.43,348.18Z"/></svg>