<svg id="Camada_1" data-name="Camada 1" xmlns="http://www.w3.org/2000/svg" viewBox="0 0 850 900"><defs><style>.cls-1{fill:#c3c3c3;}</style></defs><title>Forma - Voluntariado</title><path class="cls-1" d="M849.64,643.26c-4.31-48.43-17.21-94.91-34.73-140.24-24.27-62.78-56.36-121.77-93.19-178.33-43.12-66.23-91.62-128.16-152-180.76-49.56-43.18-103.85-79-165.06-104.56A503,503,0,0,0,214,0C179.38-.31,145.3,4.23,111.77,12.27c-31,7.45-60.56,18.63-87.14,36.44A168.2,168.2,0,0,0,0,68.67V900c19.9.35,40.3-4.1,61.34-13.47,28.69-12.77,56.38-27.46,84.88-40.58a413.16,413.16,0,0,1,83-28.51c53.79-12,107.83-9.4,161.88-2.17,53.61,7.17,106,20.32,158.75,31.59,45.8,9.79,91.66,19.47,138.94,18.49,60.66-1.26,105.65-27.42,134.1-80.14,19.7-36.52,28-75.4,26.83-116.4C849.74,660.28,850.39,651.71,849.64,643.26Z"/></svg>