<svg id="Camada_1" data-name="Camada 1" xmlns="http://www.w3.org/2000/svg" viewBox="0 0 631.65 200"><title>Animal - Femea</title><path d="M101.35,75.89a50.68,50.68,0,1,0-61.53,49.72c.07,3.53,0,8.32,0,11.75H38c-3.2,0-6.39-.08-9.58,0a9.85,9.85,0,0,0-9.07,12.83c1.29,4.26,4.93,6.91,9.8,7,3.47.07,6.94,0,10.85,0,0,3.13-.17,6,0,8.94a9,9,0,0,0,5.73,7.9A9.35,9.35,0,0,0,55.64,173a9.66,9.66,0,0,0,4-8.3c0-2.45,0-4.9,0-7.44h1.79c3.36,0,6.73.08,10.09,0a10,10,0,0,0,9.94-10.15c-.08-5.45-4.44-9.64-10.17-9.72-2.75,0-5.49,0-8.24,0h-3.3V126A50.84,50.84,0,0,0,101.35,75.89Zm-83.11,0a32.44,32.44,0,1,1,32.44,32.58A32.51,32.51,0,0,1,18.24,75.89Z"/><path d="M205.2,50.19V66.68H162.73V92.81h32.54V109H162.73v43.05H142.29V50.19Z"/><path d="M294.22,117.76H235.11q.73,8.76,6.13,13.72a18.91,18.91,0,0,0,13.29,5q11.37,0,16.2-9.78h22a36.83,36.83,0,0,1-13.42,19.19q-9.93,7.51-24.38,7.52A42.12,42.12,0,0,1,234,148.19a36.42,36.42,0,0,1-14.45-14.66,45,45,0,0,1-5.18-21.89,45.72,45.72,0,0,1,5.11-22A35.61,35.61,0,0,1,233.8,75a45.88,45.88,0,0,1,41.81-.14,35,35,0,0,1,14.16,14.08,42.57,42.57,0,0,1,5,20.94A48,48,0,0,1,294.22,117.76ZM254.67,53,232.93,65.22V50.34l21.74-11.82,21.6,11.82V65.22Zm19,51.09A16.17,16.17,0,0,0,268,91.42a20.17,20.17,0,0,0-13.57-4.74,18.52,18.52,0,0,0-12.77,4.6q-5.19,4.59-6.35,12.77Z"/><path d="M434.11,79.16q9.12,9.12,9.12,25.47v47.43H422.8V107.4q0-9.48-4.82-14.52t-13.13-5q-8.33,0-13.21,5t-4.89,14.52v44.66H366.32V107.4q0-9.48-4.82-14.52t-13.13-5q-8.47,0-13.36,5t-4.89,14.52v44.66H309.69V71.21h20.43V81a27.2,27.2,0,0,1,10.15-8A31.55,31.55,0,0,1,353.91,70a35.14,35.14,0,0,1,16.93,4,28.1,28.1,0,0,1,11.53,11.46,29.37,29.37,0,0,1,11.46-11.24A32.61,32.61,0,0,1,410.1,70Q425,70,434.11,79.16Z"/><path d="M537.22,117.76H478.11q.74,8.76,6.13,13.72a18.9,18.9,0,0,0,13.28,5q11.39,0,16.2-9.78h22a36.85,36.85,0,0,1-13.43,19.19q-9.92,7.51-24.37,7.52A42.07,42.07,0,0,1,477,148.19a36.42,36.42,0,0,1-14.45-14.66,44.88,44.88,0,0,1-5.18-21.89,45.72,45.72,0,0,1,5.11-22A35.61,35.61,0,0,1,476.8,75a45.88,45.88,0,0,1,41.81-.14,35,35,0,0,1,14.16,14.08,42.68,42.68,0,0,1,5,20.94A48.09,48.09,0,0,1,537.22,117.76Zm-20.58-13.71A16.2,16.2,0,0,0,511,91.42a20.17,20.17,0,0,0-13.57-4.74,18.52,18.52,0,0,0-12.77,4.6q-5.19,4.59-6.35,12.77Z"/><path d="M552.32,89.6A35.88,35.88,0,0,1,565.6,75a35.44,35.44,0,0,1,18.76-5.11,33,33,0,0,1,15.83,3.65,32.23,32.23,0,0,1,10.88,9.2V71.21h20.58v80.85H611.07V140.24a30.39,30.39,0,0,1-10.88,9.41,33.28,33.28,0,0,1-16,3.73,34.41,34.41,0,0,1-18.61-5.26,36.8,36.8,0,0,1-13.28-14.81,47.58,47.58,0,0,1-4.89-22A46.76,46.76,0,0,1,552.32,89.6Zm55.83,9.26a20.68,20.68,0,0,0-7.88-8.17,21,21,0,0,0-10.66-2.84A20.48,20.48,0,0,0,571.3,98.72a25.31,25.31,0,0,0-3,12.62,26.14,26.14,0,0,0,3,12.77,21.54,21.54,0,0,0,7.88,8.4,20,20,0,0,0,10.43,2.91,21,21,0,0,0,10.66-2.84,20.68,20.68,0,0,0,7.88-8.17,26.3,26.3,0,0,0,2.92-12.77A26.32,26.32,0,0,0,608.15,98.86Z"/></svg>