<svg id="Camada_1" data-name="Camada 1" xmlns="http://www.w3.org/2000/svg" viewBox="0 0 200 200"><title>Dados - Certo</title><path d="M59.56,143.55A429.85,429.85,0,0,1,93,93.09c23.06-29.89,49.71-56,81.35-76.89,7.49-4.95,14.86-4.9,20.49-.07,7.71,6.62,6.7,18.64-2.38,24.62a291.16,291.16,0,0,0-52.67,44.54,372.76,372.76,0,0,0-63.11,91.79c-4.23,8.69-11,12.08-19.18,9.66-3.66-1.09-6.25-3.54-8.48-6.44Q26.42,150.85,3.87,121.39c-5.87-7.72-4.94-16.59,2-22C12.94,93.92,22,95.23,28.08,103c9.66,12.3,19.1,24.76,28.64,37.15C57.55,141.21,58.45,142.22,59.56,143.55Z"/></svg>