<svg id="Camada_1" data-name="Camada 1" xmlns="http://www.w3.org/2000/svg" viewBox="0 0 200 200"><title>Doações - Presencial Medicamentos</title><path d="M200,171.53c-.39-12-.24-24-.05-35.95A12.69,12.69,0,0,0,193.66,124c-5.46-3.58-11.6-5.48-17.88-6.9-16-3.61-32.15-4.45-48.47-3.62-2.63.13-5.26.33-8.16.51.47-.87.77-1.49,1.12-2.09q11.16-19.15,22.31-38.3c8.07-13.88,8.77-28.14,2.23-42.76C138,15.47,120.5,4.5,103.6,5c-17.6.54-31,8.35-39.8,23.43q-28.65,48.94-57.07,98a76.71,76.71,0,0,0-5.3,12.59C.6,141.39.45,144,0,146.41v7.34c.38,1.95.73,3.9,1.15,5.83,6.12,27.81,35.66,42.51,61.78,32A45.17,45.17,0,0,0,78,181.48c2.14,1.45,4.08,3,6.22,4.14A45.59,45.59,0,0,0,91,188.56c11.44,4.05,23.39,5.45,35.41,6.11a189.08,189.08,0,0,0,40.26-1.84c8.5-1.36,16.85-3.17,24.56-7.16C197,182.7,200.21,178.47,200,171.53Zm-27.94-47.29c5,1.44,9.9,3,14.77,4.75a13.8,13.8,0,0,1,4,2.63c1.59,1.34,1.67,2.42,0,3.63a32.54,32.54,0,0,1-6.48,3.82c-7.09,3-14.64,4.37-22.25,5.39a191.93,191.93,0,0,1-38.71,1.1,12.42,12.42,0,0,1-1.35-.16c-.17,0-.31-.15-.68-.35l5.63-2.49c13.77-6,27.53-12.07,41.33-18A5.83,5.83,0,0,1,172.05,124.24Zm-18.4-2.69c.32,0,.64.08,1,.12l0,.36-17.07,7.46c-10.09,4.41-20.18,8.85-30.29,13.21a4.42,4.42,0,0,1-2.75.23c-5.28-1.54-10.55-3.11-15.74-4.9a13.88,13.88,0,0,1-4.19-2.75c-1.58-1.34-1.7-2.53.05-3.62a54,54,0,0,1,9.58-5c7.77-2.88,16-4,24.18-4.83A185.22,185.22,0,0,1,153.65,121.55ZM44.86,76.4Q57.72,54.33,70.57,32.27c6.2-10.64,15.35-17.15,27.6-19.11a37.53,37.53,0,0,1,42.33,29A36.56,36.56,0,0,1,136.24,69q-13.17,22.66-26.4,45.3c-.16.27-.36.52-.7,1L44,78C44.32,77.39,44.58,76.89,44.86,76.4Zm30.72,58.22c.06,11.91,0,23.83,0,35.75A5,5,0,0,1,74.3,174c-10.54,11.46-23.55,15.78-38.61,11.83-15.5-4.06-24.5-14.7-27.37-30.21a34.71,34.71,0,0,1,4.49-24.2q13.33-23,26.77-46c.1-.16.23-.3.54-.7L97.3,117.46a76.12,76.12,0,0,0-8.21,2.87,66.28,66.28,0,0,0-9.54,5.49C76.63,127.87,75.56,131,75.58,134.62ZM189,178a84,84,0,0,1-11.86,4.74c-10,2.89-20.39,3.87-30.79,4.33a185,185,0,0,1-31.92-1.21c-8.77-1.14-17.47-2.63-25.55-6.48-.52-.25-1-.56-1.54-.82-2.82-1.39-4.09-3.41-4-6.76.25-8.43.08-16.87.08-25.31v-2.2c2.46,1,4.63,2,6.87,2.82,10.72,3.88,21.9,5.38,33.2,6.23a192.54,192.54,0,0,0,36.8-.79c10.85-1.28,21.58-3.21,31.79-8.45v11.65c0,5.6-.16,11.21.07,16.8A5.21,5.21,0,0,1,189,178Z"/><path d="M95.11,19.79a31.14,31.14,0,0,0-18.4,13.66c-1.58,2.48-1.24,4.76.88,6.06,1.93,1.18,4,.5,5.61-1.78a39.16,39.16,0,0,1,2.93-3.83,23.46,23.46,0,0,1,10.8-6.6c2.62-.78,3.78-2.06,3.76-4C100.67,20.46,98.22,18.91,95.11,19.79Z"/></svg>