<svg id="Camada_1" data-name="Camada 1" xmlns="http://www.w3.org/2000/svg" viewBox="0 0 200 200"><title>Doações - Presencial Ração</title><path d="M199.49,135.61c-1.93-14.79-3.88-29.57-5.74-44.37-.67-5.3-1.56-10.51-4-15.34-4.12-8.16-10.81-13.31-19.09-16.56a4.46,4.46,0,0,1-2.94-3,34,34,0,0,0-46.11-19.91,97.16,97.16,0,0,0-9.24,5.41C111,40.05,109.59,38,108,36.13,93.83,19.76,67.16,22,56.67,39.16c-2,3.32-3.77,4.24-7.62,4.31-13.58.25-25.71,11.35-27.87,24.86a3.77,3.77,0,0,1-2.41,3.29c-6.4,3.13-10.45,7.92-10.15,15.57a10.91,10.91,0,0,1-.27,2.34Q4.44,110.35.49,131.14c-1.15,6-.5,11.49,4.39,15.84a93.18,93.18,0,0,0,30.83,18.13c15.83,5.67,32.22,8.36,48.9,9.4a227.89,227.89,0,0,0,69-5.86c12.44-3.06,24.46-7.27,35.28-14.36,4.56-3,9.33-5.92,11.12-11.67v-3.94C199.83,137.65,199.62,136.64,199.49,135.61ZM22,78.75a28.11,28.11,0,0,1,3.08-1.21c2.5-.89,3.28-1.92,3.41-4.63a22.84,22.84,0,0,1,17-21.16,15.36,15.36,0,0,1,9.38.5c3.11,1.1,5,0,5.85-3.2C62.93,40.47,68.86,35.72,77,33.79c12.86-3.06,24.23,2.56,29.75,14.69,2.69,5.93,5.91,5.18,9.27,1.55,6.61-7.13,15-10.22,24.6-8.16,10.53,2.25,17.3,8.92,20.44,19.24a6.42,6.42,0,0,0,4.58,4.76c5.86,1.89,11.13,4.82,14.94,9.9a26.26,26.26,0,0,1,5.1,14,3.26,3.26,0,0,1-.88,2c-3.89,4.56-8.83,7.74-14,10.5-12,6.37-24.86,9.94-38.12,12.26a195.16,195.16,0,0,1-31.53,2.65c-17.18-.13-33.08-1.65-48.66-5.79-8.58-2.28-16.92-5.22-24.51-10C24,99,20.28,96.2,18,92,14.86,86.3,16.3,81.61,22,78.75Zm167.78,65.16c-7.13,5.82-15.26,9.75-23.81,12.83-15.49,5.57-31.55,8.27-47.89,9.6a222.78,222.78,0,0,1-42.51-.46c-17.88-2-35.38-5.6-51.25-14.65-5-2.85-9.52-6.62-14.17-10.08a5.29,5.29,0,0,1-2.42-5.1c1-6.33,2.14-12.64,3.2-18.81,5.35,3,10.41,5.8,15.47,8.6.34.19.7.35,1.06.51,2.43,1,4.6.38,5.55-1.61s.23-4.33-2.24-5.51a74.1,74.1,0,0,1-16.31-10c-1.15-1-1.83-1.81-1.3-3.45a47,47,0,0,0,1.06-5.29c1,1,1.86,1.77,2.7,2.53,6.6,6,14.49,9.75,22.75,12.66,20.84,7.35,42.44,9.63,64.38,9.33a181.29,181.29,0,0,0,46.66-6.46,106.78,106.78,0,0,0,30.12-13.19c2-1.35,4-2.91,6.17-4.54l2,15.38c1,7.37,1.8,14.75,2.94,22.08A5.36,5.36,0,0,1,189.82,143.91Z"/><path d="M129.47,102.15A13.8,13.8,0,1,0,115.8,88.36,13.8,13.8,0,0,0,129.47,102.15Zm0-19.69a5.9,5.9,0,1,1-5.89,5.86A5.84,5.84,0,0,1,129.51,82.46Z"/><path d="M90.09,74.11A11.8,11.8,0,1,0,78.22,62.3,11.85,11.85,0,0,0,90.09,74.11ZM89.9,58.44a3.87,3.87,0,0,1,.1,7.74,3.87,3.87,0,0,1-.1-7.74Z"/><path d="M52.16,97.44a11.81,11.81,0,0,0-.06-23.61,11.81,11.81,0,0,0,.06,23.61Zm.06-15.68a3.88,3.88,0,1,1-3.88,3.82A3.81,3.81,0,0,1,52.22,81.76Z"/><path d="M136.35,55c.57.16,1.15.25,1.72.39a12.75,12.75,0,0,1,9.64,8.82,18.87,18.87,0,0,0,.79,2.22,3.79,3.79,0,0,0,4.44,2,4,4,0,0,0,2.86-3.93,7.09,7.09,0,0,0-.11-.83c-1.42-5.65-4.34-10.36-9.4-13.22a32.46,32.46,0,0,0-8.75-3.05,3.67,3.67,0,0,0-4.25,3.39A4,4,0,0,0,136.35,55Z"/></svg>