<svg id="Camada_1" data-name="Camada 1" xmlns="http://www.w3.org/2000/svg" viewBox="0 0 200 200"><title>Doações - Presencial</title><path d="M53.63,107.26a87.6,87.6,0,0,0,8.83,17.17c7.9,12.28,16.19,25,24.66,37.95C89.49,166,92,169.54,94.5,173l1.83,2.56a4.73,4.73,0,0,0,3.87,2h0a5,5,0,0,0,4-2.15l1.37-2c2.1-3.08,4.28-6.26,6.37-9.44,6.06-9.2,12.93-19.62,19.65-30,3.36-5.19,7.25-11.23,10.85-17.3a45.68,45.68,0,0,0,6.55-21.42,50.91,50.91,0,0,0-1.72-16.35,48.09,48.09,0,0,0-11-20,66.61,66.61,0,0,0-7.08-6.5,42.35,42.35,0,0,0-12.09-6.6A48.32,48.32,0,0,0,105.6,42.9c-.86-.1-1.72-.18-2.58-.27l-1.18-.12H97.17l-.45.07-.43.07-1.8.2c-1.34.13-2.73.28-4.12.54a48.8,48.8,0,0,0-29,17.67A49.14,49.14,0,0,0,51,87.31a52.73,52.73,0,0,0,.19,10.47A40.54,40.54,0,0,0,53.63,107.26Zm7.58-18a39.25,39.25,0,0,1,5.73-18A37.59,37.59,0,0,1,83.38,56.61,38.59,38.59,0,0,1,96,53.11c.8-.08,1.62-.11,2.45-.11s1.74,0,2.65.06l1.81,0a33.15,33.15,0,0,1,10.69,2.16,34.64,34.64,0,0,1,10.75,6.1,39,39,0,0,1,7.54,8,40.71,40.71,0,0,1,6.33,15.27,38,38,0,0,1,.58,9.53,38.44,38.44,0,0,1-3.69,14.12,110.87,110.87,0,0,1-7.65,12.86q-11.55,17.56-23.11,35.13c-1.38,2.1-2.76,4.14-4.22,6.31a2.43,2.43,0,0,1-.14.2l-1.59-2.35c-8.39-12.4-17.26-26-27.12-41.6-2.12-3.35-4.22-6.92-6.24-10.6a32.55,32.55,0,0,1-3.52-11A36.67,36.67,0,0,1,61.21,89.23Z"/><path d="M99.74,115.15c.33,0,.65,0,1,0h0A22.29,22.29,0,0,0,122,90.61,22,22,0,0,0,98.58,71a22.08,22.08,0,0,0-20.64,23.5A22.09,22.09,0,0,0,99.74,115.15ZM88.45,93.42A11.55,11.55,0,0,1,99,81.75l.43,0h.3a10.7,10.7,0,0,1,8.19,3,12,12,0,0,1,3.76,8.43,11.75,11.75,0,0,1-11.93,11.75h0a11.78,11.78,0,0,1-8.26-3.87,10.18,10.18,0,0,1-3-7.38v-.26Z"/><path d="M100,200A92.5,92.5,0,1,0,7.5,107.5,92.61,92.61,0,0,0,100,200Zm0-175.14A82.64,82.64,0,1,1,17.36,107.5,82.73,82.73,0,0,1,100,24.86Z"/></svg>