<svg id="Camada_1" data-name="Camada 1" xmlns="http://www.w3.org/2000/svg" viewBox="0 0 200 200"><title>Doações - Unitária</title><path d="M67.16,146.78a26.47,26.47,0,0,0,7,7A38.67,38.67,0,0,0,85,158.9a41.21,41.21,0,0,0,5.61,1.29V163a9.28,9.28,0,0,0,2.8,6.72,10.2,10.2,0,0,0,3,2,9.38,9.38,0,0,0,3.71.74,9.68,9.68,0,0,0,3.75-.74,10,10,0,0,0,3.09-2,9.7,9.7,0,0,0,2.1-3,8.92,8.92,0,0,0,.79-3.71v-3.43a42.73,42.73,0,0,0,6.76-2.3,39.73,39.73,0,0,0,7.62-4.41,32.19,32.19,0,0,0,6.27-6.06,27.7,27.7,0,0,0,4.2-7.62,26.37,26.37,0,0,0,1.53-9.07,19.51,19.51,0,0,0-3.71-11.83,41.38,41.38,0,0,0-9.69-9.27,102.52,102.52,0,0,0-13.56-8Q101.69,97.32,94,93.28a22.84,22.84,0,0,1-6.68-4.58,9.07,9.07,0,0,1-1.36-11,12,12,0,0,1,3.3-3.55,15.66,15.66,0,0,1,4.57-2.22A17.47,17.47,0,0,1,99,71.11a16.48,16.48,0,0,1,5.07.7,15,15,0,0,1,4,2,24.53,24.53,0,0,1,3.59,3c1.15,1.19,2.39,2.46,3.71,3.84a13.88,13.88,0,0,0,4.16,3.5,8.29,8.29,0,0,0,4.17.7,10.88,10.88,0,0,0,3.58-.58,8.77,8.77,0,0,0,3-1.73,7.56,7.56,0,0,0,2-2.84,9.8,9.8,0,0,0,.62-4.08,7.41,7.41,0,0,0-.33-2.27,18.63,18.63,0,0,0-.83-2.1,31.47,31.47,0,0,0-5.85-6.72,38,38,0,0,0-7.67-5.15,40.76,40.76,0,0,0-8.32-3.14V53.63a13.64,13.64,0,0,0-.66-4.25,11,11,0,0,0-1.9-3.54,8.84,8.84,0,0,0-3.09-2.43,10.09,10.09,0,0,0-8.08-.13,10.27,10.27,0,0,0-3.09,2.11A10.06,10.06,0,0,0,91,48.48a9.2,9.2,0,0,0-.78,3.75V56a35.38,35.38,0,0,0-15,7.53,28.71,28.71,0,0,0-7.09,9.52,28.21,28.21,0,0,0-2.55,12,20.6,20.6,0,0,0,2.14,9.64,25.32,25.32,0,0,0,5.65,7.26,38.94,38.94,0,0,0,8,5.48q4.49,2.34,9.19,4.37t9.19,3.87a60.7,60.7,0,0,1,8,4,22,22,0,0,1,5.65,4.66,8.94,8.94,0,0,1,2.14,5.93,9.21,9.21,0,0,1-1.56,5.28,13.5,13.5,0,0,1-4.08,3.87,20.33,20.33,0,0,1-5.65,2.39,24.22,24.22,0,0,1-6.18.83,21.57,21.57,0,0,1-5.77-.75,21.11,21.11,0,0,1-5-2,18.6,18.6,0,0,1-4-3,14.66,14.66,0,0,1-2.72-3.71,10.19,10.19,0,0,0-3.67-3.22,9.32,9.32,0,0,0-4.16-1A9.09,9.09,0,0,0,68.23,130a8,8,0,0,0-2.89,2.64A9.25,9.25,0,0,0,64,135.65a8.82,8.82,0,0,0-.16,3.38A21.17,21.17,0,0,0,67.16,146.78Z"/><path d="M100,200A92.5,92.5,0,1,0,7.5,107.5,92.61,92.61,0,0,0,100,200Zm0-175.14A82.64,82.64,0,1,1,17.36,107.5,82.73,82.73,0,0,1,100,24.86Z"/></svg>