<svg id="Camada_1" data-name="Camada 1" xmlns="http://www.w3.org/2000/svg" viewBox="0 0 400 200"><title>Elementos - Seta 3</title><path d="M370.66,168.41c-1.89-3.64-3.42-6.46-4.82-9.35a16.35,16.35,0,0,1-1.53-4.17,5.46,5.46,0,0,1,3-6.11c2.64-1.41,5.13-1.31,7.14.63a11,11,0,0,1,2.45,3.66c5.38,13.12,12.19,25.38,21.36,36.26a7.2,7.2,0,0,1,1.75,4.76c-.09,4.08-3,6.53-7,5.77a12.19,12.19,0,0,1-3.05-1A128.21,128.21,0,0,0,359.48,189c-.93-.19-1.86-.39-2.78-.62-3.12-.79-4.48-2.62-4.1-5.49s2.27-4.41,5.36-4.39,5.91.29,9.11.47a10.1,10.1,0,0,0-1.72-1.3,103.7,103.7,0,0,0-35.2-9.08c-18.11-1.59-35.54,2.22-53,6.25-11.47,2.65-22.84,5.87-34.4,8-9.14,1.72-18.33,1.2-27-3.21-8.93-4.55-13.84-11.87-15.5-21.54-1.73-10.13.06-19.95,2.85-29.65,3.75-13.06,10.36-24.73,18.21-35.67,9.33-13,19.09-25.66,28.58-38.53A68.58,68.58,0,0,0,260.89,33.5a24,24,0,0,0,.25-14C259.13,12.76,255.7,8,247.32,7A3.28,3.28,0,0,1,244.46,4V4A3.26,3.26,0,0,1,246.89.47a16.72,16.72,0,0,1,9.16.38c10.68,3.35,15.89,11.29,17.38,21.88,1.24,8.77-1.54,16.87-5.2,24.69-5.27,11.25-12.6,21.17-20.1,31-8.39,11-17.18,21.69-24.11,33.71-5.57,9.68-10,19.78-11.84,30.93a36.44,36.44,0,0,0,.62,15.28,16.56,16.56,0,0,0,11.46,12.14c7,2.35,14.18,1.84,21.27.3,13-2.81,25.9-5.77,38.84-8.69,15.13-3.42,30.44-5.29,45.95-4.48a96.66,96.66,0,0,1,37.54,9.57C368.46,167.44,369.08,167.7,370.66,168.41Z"/><path d="M64.24,109.08a9.38,9.38,0,0,1,.2-1.25,2.17,2.17,0,0,1,.37-.81,1.51,1.51,0,0,1,.66-.44,3.29,3.29,0,0,1,1-.13,5.68,5.68,0,0,1,2.89.57,2,2,0,0,1,.93,1.84,10.3,10.3,0,0,1-.1,1.06c-.06.55-.14,1.22-.25,2s-.23,1.67-.36,2.63-.27,1.93-.39,2.91c-.33,2.3-.69,4.86-1.11,7.71a6.32,6.32,0,0,1-1.49,3.63,4.51,4.51,0,0,1-3.29,1.1,7.89,7.89,0,0,1-3.38-.83,15.23,15.23,0,0,1-3.38-2.26,22,22,0,0,1-3.1-3.32,25.26,25.26,0,0,1-2.57-4,23.42,23.42,0,0,1-1.73-4.36,16,16,0,0,1-.63-4.35,7.52,7.52,0,0,1,.68-3.59A2.52,2.52,0,0,1,51.59,106a10.62,10.62,0,0,1,2,.15,3,3,0,0,1,1.25.51,2,2,0,0,1,.67.95,4.81,4.81,0,0,1,.2,1.48c0,.39,0,.79-.05,1.18a11.66,11.66,0,0,0-.06,1.18,15.25,15.25,0,0,0,.29,2.86,21.08,21.08,0,0,0,1.89,5.61,15.77,15.77,0,0,0,1.37,2.25,8,8,0,0,0,1.46,1.53,2.41,2.41,0,0,0,1.44.56.9.9,0,0,0,.74-.32,2.17,2.17,0,0,0,.33-1.1Z"/><path d="M97,123.93a2.36,2.36,0,0,1,1.54-.67,1.46,1.46,0,0,1,.77.21,4,4,0,0,1,.78.67,8.81,8.81,0,0,1,.58,1,1.82,1.82,0,0,1,.17.77,2.08,2.08,0,0,1-.8,1.53,19.67,19.67,0,0,1-2.79,1.92,20.81,20.81,0,0,1-3.15,1.43A20.42,20.42,0,0,1,87.23,132a14.65,14.65,0,0,1-4.09-.55,11.73,11.73,0,0,1-3.39-1.57,9.79,9.79,0,0,1-2.51-2.46,9,9,0,0,1-1.45-3.23,3.12,3.12,0,0,0-.45-1,.84.84,0,0,0-.66-.23,2.23,2.23,0,0,1-1.53-.48,1.82,1.82,0,0,1-.53-1.4,1.24,1.24,0,0,1,0-.48l0-.54a2.61,2.61,0,0,1,.53-1.4,1.58,1.58,0,0,1,1.22-.43h.4a1.62,1.62,0,0,0,1.59-1.05,14.25,14.25,0,0,1,2.12-3.38,14.11,14.11,0,0,1,2.9-2.62,13.82,13.82,0,0,1,3.45-1.69,12,12,0,0,1,3.75-.6,11.88,11.88,0,0,1,3.72.57,10,10,0,0,1,3,1.6,7.65,7.65,0,0,1,2,2.39,6.08,6.08,0,0,1,.74,3,4.62,4.62,0,0,1-1.66,3.61,6.58,6.58,0,0,1-2,1.11,9.77,9.77,0,0,1-2.59.57l-9.32.94a1.33,1.33,0,0,0-.87.27.85.85,0,0,0-.34.72A2.09,2.09,0,0,0,82,125a4.86,4.86,0,0,0,1.39,1.14,8,8,0,0,0,2,.8,9.63,9.63,0,0,0,2.35.29,12.19,12.19,0,0,0,2.37-.23,16,16,0,0,0,2.42-.65,17.86,17.86,0,0,0,2.32-1A14.28,14.28,0,0,0,97,123.93ZM91,117a1.24,1.24,0,0,0,.69-.39,1,1,0,0,0,.3-.76,1.16,1.16,0,0,0-.3-.76,2.79,2.79,0,0,0-.8-.63A4.82,4.82,0,0,0,89.7,114a6,6,0,0,0-1.43-.16,8.54,8.54,0,0,0-2.25.32,9.91,9.91,0,0,0-2.1.85,6.51,6.51,0,0,0-1.53,1.15,1.88,1.88,0,0,0-.59,1.25c0,.41.25.62.75.62.31,0,.8,0,1.48-.11l2.26-.25c.82-.1,1.65-.22,2.49-.34S90.36,117.11,91,117Z"/><path d="M104.63,139a2.75,2.75,0,0,0,1.15-.21,1.46,1.46,0,0,0,.73-.74,4.35,4.35,0,0,0,.37-1.44,18.88,18.88,0,0,0,.11-2.34q0-5.51-.39-9.48t-.84-6.72c-.31-1.82-.59-3.28-.85-4.39a11.86,11.86,0,0,1-.39-2.51,1.7,1.7,0,0,1,.83-1.47,4.26,4.26,0,0,1,2.29-.62c1.37,0,2.21.4,2.49,1.21.38,1.27.72,2.73,1,4.39s.58,3.44.8,5.36.4,3.91.51,6,.18,4.18.18,6.29a34.58,34.58,0,0,1-.39,5.66,9.5,9.5,0,0,1-1.32,3.69,5.15,5.15,0,0,1-2.43,2,10.07,10.07,0,0,1-3.73.61A12.23,12.23,0,0,1,102,144a18.35,18.35,0,0,1-2.81-.89,16.5,16.5,0,0,1-2.59-1.3,14.93,14.93,0,0,1-2.15-1.57A8.34,8.34,0,0,1,93,138.51a3.15,3.15,0,0,1-.55-1.66,1.75,1.75,0,0,1,.33-.92,4.64,4.64,0,0,1,.79-1,5,5,0,0,1,1-.74,2,2,0,0,1,1-.29,1.87,1.87,0,0,1,1.06.37,12.07,12.07,0,0,1,1.18.94l1.35,1.21a13.61,13.61,0,0,0,1.55,1.21,9.78,9.78,0,0,0,1.82.94A5.79,5.79,0,0,0,104.63,139Zm3.52-34.38a4.72,4.72,0,0,1-1.44-.27,3.56,3.56,0,0,1-1.14-.66,3.23,3.23,0,0,1-.77-1,2.58,2.58,0,0,1-.28-1.2,2.23,2.23,0,0,1,.86-1.82,3.52,3.52,0,0,1,2.31-.7,3.79,3.79,0,0,1,1.38.25,4,4,0,0,1,1.17.7,3.58,3.58,0,0,1,.81,1,2.74,2.74,0,0,1,.29,1.22,2.13,2.13,0,0,1-.83,1.79A3.85,3.85,0,0,1,108.15,104.62Z"/><path d="M135.38,106.34a9,9,0,0,1,2.84.45,8.19,8.19,0,0,1,2.42,1.27,6.2,6.2,0,0,1,1.68,1.93,5,5,0,0,1,.63,2.5,2.45,2.45,0,0,1-.25,1.09,2.93,2.93,0,0,1-.69.91,3.33,3.33,0,0,1-1,.62,3,3,0,0,1-1.14.23h-.19a.2.2,0,0,1-.11,0l.11,2.15a12.89,12.89,0,0,0,1.09,5.61,2.9,2.9,0,0,0,2.56,1.77,4.37,4.37,0,0,0,1-.1,8.12,8.12,0,0,0,.83-.26l.74-.26a2.42,2.42,0,0,1,.7-.1,1.45,1.45,0,0,1,1.09.53,1.92,1.92,0,0,1,.47,1.29,2.43,2.43,0,0,1-.58,1.51,5.76,5.76,0,0,1-1.52,1.35,8.43,8.43,0,0,1-2.12,1,7.56,7.56,0,0,1-2.39.38,4.88,4.88,0,0,1-3.68-1.73,10.47,10.47,0,0,1-2.25-5.09c-.11-.36-.25-.54-.43-.54a.71.71,0,0,0-.57.32,19.48,19.48,0,0,1-5.66,5,12.14,12.14,0,0,1-5.94,1.68,7.35,7.35,0,0,1-2.47-.4,5.22,5.22,0,0,1-1.87-1.15,5,5,0,0,1-1.18-1.8,6.34,6.34,0,0,1-.41-2.37,10.39,10.39,0,0,1,.82-3.9,19.49,19.49,0,0,1,2.21-4,26.57,26.57,0,0,1,3.24-3.79,27.18,27.18,0,0,1,3.86-3.17,21.07,21.07,0,0,1,4.13-2.18A11.25,11.25,0,0,1,135.38,106.34Zm-.89,9.29a5.92,5.92,0,0,1,.89-1.33,2,2,0,0,1,1.15-.55c.4,0,.59-.18.59-.37a.8.8,0,0,0-.16-.46,8.64,8.64,0,0,0-1.07-1.22,2.14,2.14,0,0,0-1.51-.53,5.51,5.51,0,0,0-2.28.59,15.24,15.24,0,0,0-2.56,1.57,24.81,24.81,0,0,0-2.55,2.23,21.68,21.68,0,0,0-2.22,2.57,15.69,15.69,0,0,0-1.56,2.6,5.71,5.71,0,0,0-.59,2.31,2,2,0,0,0,.5,1.43,1.79,1.79,0,0,0,1.35.51q2.2,0,4.81-2.34A27.19,27.19,0,0,0,134.49,115.63Z"/><path d="M7.71,164.79a2.32,2.32,0,0,1,.8-2,4.74,4.74,0,0,1,2.66-.58,4.63,4.63,0,0,1,1.14.12,1.79,1.79,0,0,1,.81.45,2.44,2.44,0,0,1,.54.84A7.57,7.57,0,0,1,14,165c.22,1.67.45,3.39.71,5.16s.54,3.55.82,5.34c.11.81.53,1.21,1.26,1.21q.3,0,1-.06l1.62-.17,2-.2,2.17-.2,2.07-.16c.65,0,1.23-.07,1.73-.07a1.7,1.7,0,0,1,.94.23,1.64,1.64,0,0,1,.55.59,2.15,2.15,0,0,1,.27.81,5.29,5.29,0,0,1,.07.9,2.52,2.52,0,0,1-.15.83,2.81,2.81,0,0,1-.4.77,2.23,2.23,0,0,1-.63.55,1.74,1.74,0,0,1-.86.21c-1.56,0-3.13.05-4.72.15s-3.16.23-4.74.39c-.8.11-1.2.51-1.2,1.21a.79.79,0,0,0,0,.2.88.88,0,0,1,0,.2c.21,1.56.42,3,.6,4.38s.35,2.57.49,3.64.24,1.95.32,2.65.12,1.18.12,1.41a5.83,5.83,0,0,1-.19,1.63,2.23,2.23,0,0,1-.62,1.07,2.3,2.3,0,0,1-1.14.59,7.39,7.39,0,0,1-1.78.18,2.09,2.09,0,0,1-1.51-.48,2.2,2.2,0,0,1-.53-1.48q-.16-3.17-.51-6.38c-.24-2.14-.51-4.27-.81-6.41-.16-.76-.56-1.15-1.21-1.15l-.19,0a.62.62,0,0,1-.18,0c-1.11.25-2.16.5-3.15.76s-1.9.52-2.76.8a8.93,8.93,0,0,1-1.29.34,6.61,6.61,0,0,1-1,.09A1,1,0,0,1,.3,184,2.87,2.87,0,0,1,0,182.6a6.21,6.21,0,0,1,.05-.69,3.76,3.76,0,0,1,.21-.78,2.33,2.33,0,0,1,.43-.72,2,2,0,0,1,.76-.55,24.39,24.39,0,0,1,3-1c1.25-.34,2.67-.65,4.24-.93a1.86,1.86,0,0,0,.85-.44,1.3,1.3,0,0,0,.31-.93v-.28A.89.89,0,0,0,9.8,176c-.28-1.65-.56-3.15-.82-4.5S8.5,169,8.31,168s-.33-1.73-.44-2.28A8.71,8.71,0,0,1,7.71,164.79Z"/><path d="M44.53,172.34a9,9,0,0,1,2.84.45,8.19,8.19,0,0,1,2.42,1.27A6.2,6.2,0,0,1,51.47,176a5,5,0,0,1,.63,2.5,2.46,2.46,0,0,1-.26,1.09,2.9,2.9,0,0,1-.68.91,3.33,3.33,0,0,1-1,.62,3,3,0,0,1-1.14.23h-.19a.23.23,0,0,1-.11,0l.11,2.15a12.75,12.75,0,0,0,1.09,5.61,2.9,2.9,0,0,0,2.56,1.77,4.43,4.43,0,0,0,1-.1,8.12,8.12,0,0,0,.83-.26l.74-.26a2.42,2.42,0,0,1,.7-.1,1.45,1.45,0,0,1,1.09.53,1.92,1.92,0,0,1,.47,1.29,2.49,2.49,0,0,1-.58,1.51,5.92,5.92,0,0,1-1.52,1.35,8.6,8.6,0,0,1-2.12,1,7.56,7.56,0,0,1-2.39.38,4.87,4.87,0,0,1-3.68-1.73,10.47,10.47,0,0,1-2.26-5.09c-.1-.36-.25-.54-.42-.54a.71.71,0,0,0-.57.32,19.38,19.38,0,0,1-5.67,5,12.08,12.08,0,0,1-5.93,1.68,7.35,7.35,0,0,1-2.47-.4,5.13,5.13,0,0,1-1.87-1.15,5,5,0,0,1-1.18-1.8,6.34,6.34,0,0,1-.42-2.37,10.58,10.58,0,0,1,.82-3.9,20,20,0,0,1,2.22-4,26.57,26.57,0,0,1,3.24-3.79,27.18,27.18,0,0,1,3.86-3.17,21,21,0,0,1,4.12-2.18A11.31,11.31,0,0,1,44.53,172.34Zm-.89,9.29a5.92,5.92,0,0,1,.89-1.33,2,2,0,0,1,1.15-.55c.39-.05.59-.18.59-.37a.8.8,0,0,0-.16-.46A8.64,8.64,0,0,0,45,177.7a2.14,2.14,0,0,0-1.51-.53,5.51,5.51,0,0,0-2.28.59,14.85,14.85,0,0,0-2.56,1.57,26,26,0,0,0-2.56,2.23,22.53,22.53,0,0,0-2.21,2.57,14.43,14.43,0,0,0-1.56,2.6,5.71,5.71,0,0,0-.59,2.31,2,2,0,0,0,.5,1.43,1.79,1.79,0,0,0,1.35.51q2.21,0,4.81-2.34A27.19,27.19,0,0,0,43.64,181.63Z"/><path d="M60.59,197c-.13-2.38-.33-4.57-.61-6.59s-.56-3.77-.86-5.27-.55-2.73-.78-3.66A11.06,11.06,0,0,1,58,179.7a1.6,1.6,0,0,1,.39-1,3.68,3.68,0,0,1,1-.84,5.63,5.63,0,0,1,1.27-.58,4.35,4.35,0,0,1,1.25-.21,1.74,1.74,0,0,1,.79.16.86.86,0,0,1,.47.53c.09.31.18.63.26,1s.16.73.25,1.19c.11.66.25,1,.43,1s.42-.3.68-.89a9.62,9.62,0,0,1,1.15-2,5.7,5.7,0,0,1,1.33-1.28,4.88,4.88,0,0,1,1.48-.66,6.92,6.92,0,0,1,1.59-.18,5.52,5.52,0,0,1,4.29,2,14,14,0,0,1,2.75,5.75,1.73,1.73,0,0,0,.24.55.31.31,0,0,0,.24.12.48.48,0,0,0,.29-.12,1.21,1.21,0,0,0,.28-.5,13,13,0,0,1,1.5-3,9.78,9.78,0,0,1,1.79-2,6.4,6.4,0,0,1,1.89-1.11,5.29,5.29,0,0,1,1.85-.35,4.34,4.34,0,0,1,3,1.19,10.17,10.17,0,0,1,2.37,3.68,35.15,35.15,0,0,1,1.79,6.28q.77,3.81,1.28,9a2.23,2.23,0,0,1-.89,2,4.32,4.32,0,0,1-2.41.58,2.49,2.49,0,0,1-1.56-.43,1.61,1.61,0,0,1-.65-1.13q-.34-3.74-.76-6.64t-.9-4.92a13,13,0,0,0-1.06-3c-.39-.7-.81-1-1.28-1a1.44,1.44,0,0,0-.87.51,6.05,6.05,0,0,0-1.11,1.86,27.83,27.83,0,0,0-1.24,3.71,58.44,58.44,0,0,0-1.23,6,2.22,2.22,0,0,1-1,1.56,3.59,3.59,0,0,1-2,.53,3.13,3.13,0,0,1-1.89-.42,1.94,1.94,0,0,1-.58-1.45c-.07-1.19-.19-2.36-.36-3.54s-.38-2.29-.63-3.35-.53-2-.83-3a18.8,18.8,0,0,0-1-2.36,6.46,6.46,0,0,0-1.05-1.57,1.49,1.49,0,0,0-1-.57c-.45,0-.89.32-1.31.94a9.81,9.81,0,0,0-1.12,2.66,26.26,26.26,0,0,0-.8,4.14,46.31,46.31,0,0,0-.29,5.4c0,.34,0,.67,0,1s0,.68,0,1a2.91,2.91,0,0,1-.25,1.31,2,2,0,0,1-.73.81,2.84,2.84,0,0,1-1.09.4,8,8,0,0,1-1.34.11,5.07,5.07,0,0,1-1.07-.09,1.43,1.43,0,0,1-.62-.29,1,1,0,0,1-.3-.49A3.68,3.68,0,0,1,60.59,197Z"/><path d="M98.32,189.61q-.51-6.29-1.17-12.49t-1.92-12.38a1.39,1.39,0,0,1,0-.39V164a2.14,2.14,0,0,1,.25-1.07,2.31,2.31,0,0,1,.69-.77,3.3,3.3,0,0,1,1-.47,4.33,4.33,0,0,1,1.16-.16,2.25,2.25,0,0,1,2.26,1.53,18,18,0,0,1,.55,2.23c.19,1,.39,2.09.59,3.36s.41,2.66.61,4.18.38,3.06.56,4.66c0,.44.2.67.43.67s.4-.14.62-.41q3.91-5.14,9.29-5.15a8.22,8.22,0,0,1,3.76.88,9.68,9.68,0,0,1,3,2.42,11.43,11.43,0,0,1,2,3.63,13.5,13.5,0,0,1,.74,4.51,12.16,12.16,0,0,1-.71,4.19,10.05,10.05,0,0,1-2,3.33,8.95,8.95,0,0,1-6.76,3,13.15,13.15,0,0,1-5-1,19.08,19.08,0,0,1-4.56-2.65.76.76,0,0,0-.51-.21.84.84,0,0,0-.65.37,1.89,1.89,0,0,1-.91.63,4,4,0,0,1-1.18.15C99.11,191.86,98.37,191.11,98.32,189.61Zm13.91-12a5,5,0,0,0-2.14.5,7.46,7.46,0,0,0-2,1.41,11.86,11.86,0,0,0-1.73,2.19,13.92,13.92,0,0,0-1.33,2.83.83.83,0,0,0-.08.24,1.57,1.57,0,0,0,0,.27.81.81,0,0,0,.33.7c.64.55,1.31,1.07,2,1.56a19.91,19.91,0,0,0,2,1.26,11.93,11.93,0,0,0,2,.85,6.42,6.42,0,0,0,1.85.3,3.73,3.73,0,0,0,2.94-1.12,4.8,4.8,0,0,0,1-3.28,11.84,11.84,0,0,0-.38-3.07,8.85,8.85,0,0,0-1-2.45,5.07,5.07,0,0,0-1.54-1.61A3.5,3.5,0,0,0,112.23,177.6Z"/><path d="M149.13,189.93a2.36,2.36,0,0,1,1.53-.67,1.47,1.47,0,0,1,.78.21,4.68,4.68,0,0,1,.78.67,7.25,7.25,0,0,1,.57,1,1.84,1.84,0,0,1,.18.77,2.09,2.09,0,0,1-.81,1.53,19.67,19.67,0,0,1-2.79,1.92,20.7,20.7,0,0,1-3.14,1.43,20.54,20.54,0,0,1-6.85,1.21,14.52,14.52,0,0,1-4.08-.55,11.79,11.79,0,0,1-3.4-1.57,10,10,0,0,1-2.51-2.46,9.2,9.2,0,0,1-1.45-3.23,3.16,3.16,0,0,0-.44-1,.87.87,0,0,0-.66-.23,2.23,2.23,0,0,1-1.53-.48,1.79,1.79,0,0,1-.54-1.4,1.49,1.49,0,0,1,0-.48l.06-.54a2.62,2.62,0,0,1,.52-1.4,1.6,1.6,0,0,1,1.22-.43H127a1.6,1.6,0,0,0,1.58-1,14.58,14.58,0,0,1,2.12-3.38,14.37,14.37,0,0,1,2.9-2.62,14.16,14.16,0,0,1,3.45-1.69,12.05,12.05,0,0,1,3.75-.6,11.83,11.83,0,0,1,3.72.57,10,10,0,0,1,3,1.6,7.69,7.69,0,0,1,2,2.39,6.19,6.19,0,0,1,.74,3,4.59,4.59,0,0,1-1.67,3.61,6.52,6.52,0,0,1-1.94,1.11,9.94,9.94,0,0,1-2.6.57l-9.32.94a1.37,1.37,0,0,0-.87.27.87.87,0,0,0-.33.72,2.08,2.08,0,0,0,.52,1.34,4.77,4.77,0,0,0,1.4,1.14,8,8,0,0,0,2,.8,9.63,9.63,0,0,0,2.35.29,12.36,12.36,0,0,0,2.38-.23,15.91,15.91,0,0,0,2.41-.65,18.61,18.61,0,0,0,2.33-1A14.28,14.28,0,0,0,149.13,189.93Zm-6-6.93a1.26,1.26,0,0,0,.7-.39,1.07,1.07,0,0,0,.29-.76,1.21,1.21,0,0,0-.29-.76,3,3,0,0,0-.81-.63,4.67,4.67,0,0,0-1.18-.44,5.94,5.94,0,0,0-1.42-.16,8.56,8.56,0,0,0-2.26.32,9.62,9.62,0,0,0-2.09.85,6.12,6.12,0,0,0-1.53,1.15,1.83,1.83,0,0,0-.59,1.25c0,.41.25.62.75.62.3,0,.79,0,1.47-.11l2.26-.25c.82-.1,1.66-.22,2.5-.34Zm4-19.44a1.11,1.11,0,0,1-.39.78,9.17,9.17,0,0,1-1,.83l-1.54,1.06a18.22,18.22,0,0,0-1.87,1.48,22.71,22.71,0,0,0-2,2.09,20.86,20.86,0,0,0-2,2.89,1.07,1.07,0,0,1-.6.51,2.67,2.67,0,0,1-.88.13,3.48,3.48,0,0,1-.9-.12,3.82,3.82,0,0,1-.8-.32,2.21,2.21,0,0,1-.59-.48,1,1,0,0,1-.23-.61,5.11,5.11,0,0,1,.44-1.81,15.56,15.56,0,0,1,1.18-2.28,22.67,22.67,0,0,1,1.72-2.39,18.45,18.45,0,0,1,2.07-2.15,12,12,0,0,1,2.2-1.55A4.7,4.7,0,0,1,144,161a2.36,2.36,0,0,1,1,.27,5,5,0,0,1,1,.66,4.64,4.64,0,0,1,.78.83A1.48,1.48,0,0,1,147.09,163.56Z"/><path d="M157.05,197c-.13-2.38-.33-4.57-.6-6.59s-.57-3.77-.86-5.27-.56-2.73-.78-3.66a10.38,10.38,0,0,1-.34-1.74,1.6,1.6,0,0,1,.39-1,3.85,3.85,0,0,1,1-.84,5.7,5.7,0,0,1,1.28-.58,4.25,4.25,0,0,1,1.25-.21,1.8,1.8,0,0,1,.79.16.89.89,0,0,1,.47.53c.09.31.17.63.25,1s.17.73.26,1.19c.11.66.25,1,.43,1s.42-.3.67-.89a9.62,9.62,0,0,1,1.16-2,5.67,5.67,0,0,1,1.32-1.28,5,5,0,0,1,1.48-.66,6.94,6.94,0,0,1,1.6-.18,5.51,5.51,0,0,1,4.28,2,14,14,0,0,1,2.75,5.75,1.49,1.49,0,0,0,.25.55.31.31,0,0,0,.24.12.45.45,0,0,0,.28-.12,1.11,1.11,0,0,0,.28-.5,12.59,12.59,0,0,1,1.51-3,9.76,9.76,0,0,1,1.78-2,6.32,6.32,0,0,1,1.9-1.11,5.25,5.25,0,0,1,1.85-.35,4.37,4.37,0,0,1,3,1.19,10.3,10.3,0,0,1,2.36,3.68,34.26,34.26,0,0,1,1.8,6.28c.51,2.54.93,5.54,1.28,9a2.23,2.23,0,0,1-.89,2A4.35,4.35,0,0,1,187,200a2.51,2.51,0,0,1-1.56-.43,1.6,1.6,0,0,1-.64-1.13q-.34-3.74-.77-6.64a48.52,48.52,0,0,0-.9-4.92,12.56,12.56,0,0,0-1.06-3c-.38-.7-.81-1-1.27-1a1.39,1.39,0,0,0-.87.51,6,6,0,0,0-1.12,1.86,29.37,29.37,0,0,0-1.24,3.71c-.42,1.57-.84,3.57-1.23,6a2.19,2.19,0,0,1-1,1.56,3.55,3.55,0,0,1-2,.53,3.11,3.11,0,0,1-1.89-.42,1.9,1.9,0,0,1-.58-1.45c-.07-1.19-.19-2.36-.36-3.54s-.38-2.29-.63-3.35-.53-2-.84-3a17.45,17.45,0,0,0-1-2.36,6.76,6.76,0,0,0-1.05-1.57,1.51,1.51,0,0,0-1-.57c-.45,0-.88.32-1.3.94a9.79,9.79,0,0,0-1.13,2.66,27.56,27.56,0,0,0-.79,4.14,44.09,44.09,0,0,0-.3,5.4c0,.34,0,.67,0,1s0,.68,0,1a2.91,2.91,0,0,1-.26,1.31,2,2,0,0,1-.72.81,3,3,0,0,1-1.09.4,8,8,0,0,1-1.34.11,5.18,5.18,0,0,1-1.08-.09,1.49,1.49,0,0,1-.62-.29.94.94,0,0,1-.29-.49A3.64,3.64,0,0,1,157.05,197Z"/></svg>