<svg id="Camada_1" data-name="Camada 1" xmlns="http://www.w3.org/2000/svg" viewBox="0 0 256.15 200"><title>Filtro - Tamanho G</title><path d="M37.28,155.49V42.9c-5.31,5.24-9.75,9.65-14.23,14-6.63,6.45-14,7.12-19.33,1.8S-1.1,46,5.43,39.42Q22.58,22.16,39.82,5C46.5-1.66,53.37-1.67,60.08,5Q77.33,22.15,94.47,39.41c6.54,6.59,7.11,14,1.68,19.4C91,64,83.27,63.23,76.8,56.89q-6.42-6.28-12.87-12.55c-.1-.09-.4,0-1.09.12V157.37c5.72-5.86,10.22-10.65,14.92-15.24,5.72-5.59,13.45-5.92,18.38-1,5.1,5.08,5,12.61-.75,18.44q-18,18.31-36.27,36.3c-5.59,5.51-12.79,5.52-18.36,0Q22.25,177.64,4.05,159.07c-5.38-5.51-5.31-12.88-.33-17.84s12.27-4.92,17.84.45c4.93,4.75,9.42,9.95,14.1,14.94Z"/><path d="M218.77,71.12a34.45,34.45,0,0,0-13.86-14.06,42.18,42.18,0,0,0-20.58-4.83,45.09,45.09,0,0,0-23.1,5.87,40.73,40.73,0,0,0-15.75,16.8q-5.67,10.93-5.67,25.2,0,14.72,5.77,25.63a40.81,40.81,0,0,0,16.07,16.79q10.29,5.89,23.94,5.88,16.8,0,27.51-8.92t14.07-24.88h-50.4V92.12h79.38v25.62a68.84,68.84,0,0,1-12.6,28.36A71.15,71.15,0,0,1,218.66,167a73.14,73.14,0,0,1-34.12,7.87q-21.21,0-38.33-9.55a69.47,69.47,0,0,1-26.88-26.57q-9.76-17-9.76-38.64t9.76-38.74a69.31,69.31,0,0,1,26.88-26.67,76.86,76.86,0,0,1,38.12-9.55q24.78,0,43,12.07t25.2,33.91Z"/></svg>