<svg id="Camada_1" data-name="Camada 1" xmlns="http://www.w3.org/2000/svg" viewBox="0 0 200 200"><title>Filtro - Femea</title><path d="M162.5,70.27a62.5,62.5,0,1,0-75.88,61.31c.08,4.36,0,10.27,0,14.49H84.39c-3.94,0-7.89-.09-11.82.05a12.15,12.15,0,0,0-11.18,15.82c1.6,5.26,6.08,8.52,12.09,8.64,4.27.09,8.55,0,13.38,0,0,3.85-.21,7.46,0,11A11.05,11.05,0,0,0,94,191.36,11.55,11.55,0,0,0,106.12,190a11.94,11.94,0,0,0,4.94-10.25c0-3,0-6,0-9.17h2.21c4.14,0,8.29.1,12.43,0A12.24,12.24,0,0,0,138,158.08c-.09-6.73-5.47-11.89-12.54-12-3.39-.05-6.77,0-10.16,0h-4.07V132A62.71,62.71,0,0,0,162.5,70.27ZM60,70.27a40,40,0,1,1,40,40.17A40.08,40.08,0,0,1,60,70.27Z"/></svg>