<svg id="Camada_1" data-name="Camada 1" xmlns="http://www.w3.org/2000/svg" viewBox="0 0 240 200"><title>Filtro - Disp e Adot</title><path d="M121.82,166.08A13.08,13.08,0,0,1,132.59,171a90.69,90.69,0,0,1,12.07,17.15c3.22,6.14,0,11.45-7,11.81a15.58,15.58,0,0,1-8.2-1.88,16.89,16.89,0,0,0-16.15-.1,16,16,0,0,1-7.94,2.05c-7.52-.32-10.85-5.81-7.22-12.28a99.34,99.34,0,0,1,11.25-16.2A14.93,14.93,0,0,1,121.82,166.08Z"/><path d="M98.72,143.74a19.32,19.32,0,0,1,2.68-9.06c3.63-6.06,10-6.26,14-.47,4.16,6,3.94,16.28-.47,22.08-3.46,4.54-8.39,4.77-12.27.57C100.19,154.14,98.68,149.5,98.72,143.74Z"/><path d="M141.32,145c-.2,4.31-1,8.15-3.57,11.46-3.57,4.62-8.95,4.61-12.56,0-4.69-6-4.78-16.76-.2-22.78,3.65-4.79,9.14-4.82,12.87,0C140.53,137.05,141.17,141.09,141.32,145Z"/><path d="M103,167.23c-.15.92-.25,1.9-.49,2.83-1.09,4.15-4.8,5.91-8.75,4-4.67-2.26-7.07-6.27-8.31-11a12,12,0,0,1,0-6.58c1.27-4.14,5-5.78,8.88-3.71C100.15,155.84,102.38,161.06,103,167.23Z"/><path d="M137.15,167.32a16.82,16.82,0,0,1,6.1-13c2.37-2,5.07-3.4,8.19-1.89S155.12,157,155,160a17,17,0,0,1-6.24,12.56,11.21,11.21,0,0,1-2.31,1.48c-4.1,2-7.75.37-8.88-4A22.5,22.5,0,0,1,137.15,167.32Z"/><path d="M235.88,134.26,130.11,4.2a7.61,7.61,0,0,0-.9-.88,14.41,14.41,0,0,0-18.39,0,7.44,7.44,0,0,0-.93.89L4.12,134.26c-3.3,4.05-3.38,7.79-.22,10.5,3.32,2.84,6.93,2.09,10.45-2.2s7-8.56,10.47-12.84L33.66,119c1.37,7.72,2.57,14.45,3.76,21.18,3.35,18.92,6.73,37.83,10,56.76A4.83,4.83,0,0,0,48.83,200h29a9.38,9.38,0,0,0,0-1.52c-2.55-17.38-5-34.76-7.7-52.11-2.49-16.15,7.22-28.56,23.41-28.87,8.82-.17,44.14-.17,53,0,16.19.31,25.9,12.72,23.41,28.87-2.68,17.35-5.15,34.73-7.7,52.11a9.38,9.38,0,0,0,0,1.52h29a4.83,4.83,0,0,0,1.42-3.11c3.26-18.93,6.64-37.84,10-56.76,1.19-6.73,2.39-13.46,3.76-21.18l8.84,10.77q5.23,6.42,10.47,12.84c3.52,4.29,7.13,5,10.45,2.2C239.26,142.05,239.18,138.31,235.88,134.26Z"/></svg>