<svg id="Camada_1" data-name="Camada 1" xmlns="http://www.w3.org/2000/svg" viewBox="0 0 200 200"><title>Relatorio - Fechado</title><path d="M191.29,47.68A25.55,25.55,0,0,0,166.92,30H119.64L75,30,62.21,30c-9.39,0-19.1,0-28.64,0h-.15A25.9,25.9,0,0,0,8.75,47.52a29.15,29.15,0,0,0-1.25,9.6q0,16.18,0,32.36v21q0,16.62,0,33.24v.15a26.55,26.55,0,0,0,.24,4.24c1.71,10.27,7.67,17.25,17.72,20.72a29.53,29.53,0,0,0,10,1.22h.33q17.58,0,35.17,0h95.42a28.38,28.38,0,0,0,7.75-1.08,25.37,25.37,0,0,0,18.35-24.25V92.1q0-17.41,0-34.82A30.17,30.17,0,0,0,191.29,47.68ZM166.42,155.09H33.47a10.37,10.37,0,0,1-9.53-5.39,9.45,9.45,0,0,1-1.34-5q0-21.45,0-42.92V60.63L39.68,76.18Q61.58,96.12,83.53,116a24.48,24.48,0,0,0,32.92,0c7.71-7,15.51-14.06,23-20.93l9.83-9,28-25.52v83.69a10.44,10.44,0,0,1-6.49,9.94A11.34,11.34,0,0,1,166.42,155.09Zm-56.83-53-2.92,2.65c-4.19,3.8-9.21,3.78-13.43-.06L28.68,45.9a10.88,10.88,0,0,1,4.7-1H166.22a11.78,11.78,0,0,1,5.08,1Z"/></svg>