<svg id="Camada_1" data-name="Camada 1" xmlns="http://www.w3.org/2000/svg" viewBox="0 0 200 200"><title>Rodape - Facebook</title><path d="M199.93,39.29C199.8,16.65,183,0,160.41,0H39.59C17.06,0,.06,16.86,0,39.3Q0,100,.05,160.64a45.79,45.79,0,0,0,.69,7.84c2.9,16.29,17.53,31.65,39.68,31.52,39.73-.24,79.46,0,119.19-.12a47.58,47.58,0,0,0,11-1.19c17.62-4.31,29.19-19.37,29.28-38.06.11-20.22,0-40.45,0-60.67S200.05,59.51,199.93,39.29Zm-15.4,120.77c0,14.93-9.53,24.38-24.52,24.42-7.52,0-15,0-22.84,0v-62h21.26c1.08-8.27,2.14-16.32,3.23-24.66H137.29c0-6.86-.38-13.47.12-20,.38-4.91,3.9-7.45,9.33-7.71,4.16-.2,8.34-.1,12.51-.13,1,0,2,0,3.13,0V47.78c-10.61-.52-21.24-2.37-31.72,1.12-11.09,3.69-18.42,13.58-19.13,26.22-.36,6.42-.2,12.87-.28,19.3,0,1.07,0,2.13,0,3.37H92.56v24.6h18.5v61.92c-.82.06-1.6.17-2.38.17-23.13,0-46.25.05-69.38,0-11.88,0-20.88-7.05-23.29-18.09a29.38,29.38,0,0,1-.54-6.22q0-60.25,0-120.51c0-12.16,6.88-21.13,18-23.63a29.23,29.23,0,0,1,6.21-.55q60.26,0,120.53,0c14.78,0,24.3,9.55,24.31,24.36Q184.56,99.94,184.53,160.06Z"/></svg>