<svg id="Camada_1" data-name="Camada 1" xmlns="http://www.w3.org/2000/svg" viewBox="0 0 200 200"><title>Rodape - Tiktok</title><path d="M187.63,51c0-4.43-2.95-7.55-7.47-7.94-.69-.06-1.37-.09-2-.12a24.7,24.7,0,0,1-2.81-.21c-17.78-2.7-30.16-16.6-30.79-34.59C144.35,3,141.26,0,136,0H107.51c-6.22,0-9.12,2.91-9.12,9.15V32c0,33,0,67.12,0,100.68a26.86,26.86,0,0,1-.72,6.33,20,20,0,0,1-19.29,14.85,19.3,19.3,0,0,1-3.55-.33A20,20,0,0,1,58.54,132c1-10.24,9-17.7,19.5-18.13,4.83-.2,8-3.2,8-7.63.1-10,.1-20.42,0-30.87,0-4.49-3.36-7.63-8.08-7.64h-.13a62.79,62.79,0,0,0-19.68,3.15A66.11,66.11,0,0,0,63,198.12c2.34.54,4.72.93,7,1.31l3.18.54.17,0h9.9l.15,0,2.32-.36c1.66-.25,3.37-.51,5.06-.81a65.07,65.07,0,0,0,37.83-22,64.25,64.25,0,0,0,15.79-40.73c.17-12.8.14-25.8.11-38.37q0-8.26,0-16.54a81.75,81.75,0,0,0,34.66,8.09h.17c4.93,0,8.25-3.19,8.28-8C187.69,71.81,187.69,61.9,187.63,51Zm-15.39,21v1.36L171,73.21c-2.5-.43-4.87-.83-7.19-1.39a64.34,64.34,0,0,1-21.52-9.73,11.22,11.22,0,0,0-3.67-1.85,7.72,7.72,0,0,0-1.9-.23,7.56,7.56,0,0,0-7.43,6.4,14.91,14.91,0,0,0-.16,2.61v.22c0,7,0,13.91,0,20.87,0,14.93.06,30.37-.12,45.55-.29,24.51-20.59,46.32-45.26,48.61-1.7.16-3.41.24-5.1.24-25.77,0-46.54-17.92-50.53-43.57C24,114.41,42.86,88.31,69.3,83.93c.46-.08.92-.14,1.41-.21v1.45c0,4.85,0,9.45-.06,14.07l-.08,0c-14.27,3.8-23.24,12.79-26.64,26.7a34.4,34.4,0,0,0,6.55,29.6,35,35,0,0,0,27.65,13.65c1.06,0,2.13-.05,3.19-.15,18.79-1.72,32.44-16.7,32.46-35.61,0-27.78,0-56,0-83.33V15.51h15.7c.26.91.5,1.82.74,2.71a63.64,63.64,0,0,0,2.88,9c7.44,17,20.58,27.37,39.07,30.73C172.25,62.54,172.25,67.17,172.24,72.06Z"/></svg>