<svg id="Camada_1" data-name="Camada 1" xmlns="http://www.w3.org/2000/svg" viewBox="0 0 850 850"><defs><style>.cls-1{fill:#c3c3c3;}</style></defs><title>Forma - Quem somos</title><path class="cls-1" d="M824.79,285.64c17.49-43.92,29.91-88.83,23.5-137-4-30.46-16.36-57-37.3-79.25-32.73-34.71-74.24-54.14-119.8-65.18-35.52-8.61-69.75-3.93-102.54,13-25.83,13.35-48.78,30.85-72.44,47.36-24.64,17.21-49.81,33.54-76.9,46.55a426.59,426.59,0,0,1-126.94,38.34c-36.53,5.07-73.15,8.28-109.41,9.87-12.54-1.32-24.38.88-36.29,1.18-43.33,1.1-86.67-.66-130,1.39-12.24.58-24.45,1.23-36.62,2.16V633.84q31.52,28.26,64.86,54.31a804.82,804.82,0,0,0,118.4,77.28c71.38,37.94,146.45,65,226.81,76.73A754.39,754.39,0,0,0,512.72,850c8.57.07,17.15-.9,25.71-1.54,15.19-1.15,30.48-1.59,45.52-3.79,45.45-6.66,89.72-18,131.95-36.41,52.43-22.88,90.56-59.52,109-114.67,8.69-26,11.15-52.74,10.3-80.15a277.45,277.45,0,0,0-9.27-63.14c-7-26.43-19.79-50.64-29.67-76-15.82-40.53-17.47-81-.71-121.48C804.9,330.28,815.76,308.33,824.79,285.64Z"/></svg>