<svg id="Camada_1" data-name="Camada 1" xmlns="http://www.w3.org/2000/svg" viewBox="0 0 1920 350"><defs><style>.cls-1{fill:#f5f5f5;}.cls-2{fill:#cd2501;}.cls-3{fill:#fff;}</style></defs><title>Rodapé</title><path class="cls-1" d="M960,170c-241.24,0-363.87-20.44-482.47-40.2C360.14,110.23,238.76,90,0,90V350H1920V90c-238.76,0-360.14,20.23-477.53,39.8C1323.87,149.56,1201.24,170,960,170Z"/><path class="cls-2" d="M1920,45.54C1899.62,17.66,1866.55.13,1829.19,0c-4.9.25-9.84.25-14.71.81a100.66,100.66,0,0,0-12.84,2.48c-39.43,9.76-69.17,33.7-91,66.67-30.85,46.69-72.52,80-121,106.3a256.49,256.49,0,0,0-43.94,29.65c-42.56,36.29-47.22,87.5-13.27,131.89a156.41,156.41,0,0,0,10.36,12.2H1920Z"/><path class="cls-3" d="M1752,242.79c1.5-24.28.22-55.63-7.86-76.41-6-15.38-13.94-22-26.61-21.34C1668,147.63,1668,227.84,1663.63,264c-.15,1.27.07.13-.2.85,7.46.76,15.67,3,22.33-1.25.83-.53.23-1,.39-2s-.12-6.19-.09-6.7a119.84,119.84,0,0,1,2.06-16.57,13.23,13.23,0,0,1,.59-3.12c.38-.63.29-.23,1.08-.49,8.61.9,24.9,1.85,31.74,2.08s.93.15,5.08.3c.94,14.77,1.94,29.6,3.16,44.38,7.44.06,14.85.15,22.28.13.07-12,.07-24.45,0-36.2C1752.05,244.22,1752,243.45,1752,242.79Zm-56.86-29.23c2-13.2,0-37.21,15-42,9.24-2.94,9.72,5.12,12.3,14.16.08.28,2.62,22.9,2.76,26.21C1715.37,214.22,1705.25,213.45,1695.18,213.56Z"/><path class="cls-3" d="M1875.33,246.89c-7.13-10.9-18.51-12.87-26-1.11-2.16,3.39-.38,9.88-3.86,12.73-3.8,3.11-6.28-2-7.32-5.21,4.94-17.34,7.12-34.3,8-52.48,0-10.38-.84-27.39-1.92-36.18s.92-13.58-6.65-16c-5.45-1.74-12.93.44-16,5.94.43,23.83.31,58.94-3.78,79.38-1.87,9.35-2.78,13.48-4.46,16a12.32,12.32,0,0,1-5.93,5.68,24.91,24.91,0,0,1-6.8,2.71,5.87,5.87,0,0,1-5.6-.42c-2.73-1-4.21-3.2-6.44-5.11a4.75,4.75,0,0,1-1.21-1.68l-.22-.2c-10-39.17-5.26-60.54,2.87-98.15.58-2.69-.23-3.06-1.33-3.4-5.64-1.73-11.82-.82-17.12-1.72-3.9-.67-5,0-7.38,2.58,0,0,0,.06,0,.11s0,0,0,.09c-5.1,34.83-8.27,60.53-4.82,96,2.56,9.85,4.06,21.46,11.71,28.59,10.12,9.43,22.26,10.41,35.16,9.76,12-.6,18.31-8.3,25.7-16.53,4.86,3,9.5,5.95,15.46,4.79s9.14-5.2,11.33-10.5c1.1-2.67.63-5.7,1.59-8.25,1.26-3.33,1.91-4.13,4.72-.75C1869.89,259.52,1880.09,254.16,1875.33,246.89Z"/></svg>